<?xml version="1.0" encoding="UTF-8" standalone="no"?>
<svg
   enable-background="new"
   version="1.1"
   viewBox="0 0 520.00015 519.99979"
   id="svg258"
   sodipodi:docname="favicon.svg"
   width="520.00012"
   height="519.99976"
   inkscape:version="1.1.2 (b8e25be833, 2022-02-05)"
   xmlns:inkscape="http://www.inkscape.org/namespaces/inkscape"
   xmlns:sodipodi="http://sodipodi.sourceforge.net/DTD/sodipodi-0.dtd"
   xmlns="http://www.w3.org/2000/svg"
   xmlns:svg="http://www.w3.org/2000/svg"
   xmlns:rdf="http://www.w3.org/1999/02/22-rdf-syntax-ns#"
   xmlns:cc="http://creativecommons.org/ns#"
   xmlns:dc="http://purl.org/dc/elements/1.1/">
  <sodipodi:namedview
     id="namedview260"
     pagecolor="#ffffff"
     bordercolor="#666666"
     borderopacity="1.0"
     inkscape:pageshadow="2"
     inkscape:pageopacity="0.0"
     inkscape:pagecheckerboard="0"
     showgrid="false"
     fit-margin-top="0"
     fit-margin-left="0"
     fit-margin-right="0"
     fit-margin-bottom="0"
     inkscape:zoom="0.82527642"
     inkscape:cx="348.36812"
     inkscape:cy="408.34803"
     inkscape:window-width="1920"
     inkscape:window-height="1017"
     inkscape:window-x="1912"
     inkscape:window-y="-8"
     inkscape:window-maximized="1"
     inkscape:current-layer="svg258" />
  <defs
     id="defs12">
    <filter
       id="filter4">
      <feBlend
         in2="BackgroundImage"
         mode="multiply"
         id="feBlend2" />
    </filter>
    <filter
       id="filter8">
      <feBlend
         in2="BackgroundImage"
         mode="multiply"
         id="feBlend6" />
    </filter>
    <style
       id="style10"><![CDATA[ .sb3-label {
      font: 500 12pt Helevetica Neue, Helvetica, sans-serif;
      fill: #fff;
      word-spacing: +1pt;
    }
    .sb3-motion { fill: #4c97ff; stroke: #3373cc; }
    .sb3-motion-alt { fill: #4280d7; }
    .sb3-motion-dark { fill: #4c97ff; }
    .sb3-looks { fill: #9966ff; stroke: #774dcb; }
    .sb3-looks-alt { fill: #855cd6; }
    .sb3-looks-dark { fill: #bd42bd; }
    .sb3-sound { fill: #cf63cf; stroke: #bd42bd; }
    .sb3-sound-alt { fill: #c94fc9; }
    .sb3-sound-dark { fill: #bd42bd; }
    .sb3-control { fill: #ffab19; stroke: #cf8b17; }
    .sb3-control-alt { fill: #ec9c13; }
    .sb3-control-dark { fill: #cf8b17; }
    .sb3-events { fill: #ffbf00; stroke: #cc9900; }
    .sb3-events-alt { fill: #e6ac00; }
    .sb3-events-dark { fill: #cc9900; }
    .sb3-sensing { fill: #5cb1d6; stroke: #2e8eb8; }
    .sb3-sensing-alt { fill: #47a8d1; }
    .sb3-sensing-dark { fill: #2e8eb8; }
    .sb3-operators { fill: #59c059; stroke: #389438; }
    .sb3-operators-alt { fill: #46b946; }
    .sb3-operators-dark { fill: #389438; }
    .sb3-variables { fill: #ff8c1a; stroke: #db6e00; }
    .sb3-variables-alt { fill: #ff8000; }
    .sb3-variables-dark { fill: #db6e00; }
    .sb3-list { fill: #ff661a; stroke: #e64d00; }
    .sb3-list-alt { fill: #ff5500; }
    .sb3-list-dark { fill: #e64d00; }
    .sb3-custom { fill: #ff6680; stroke: #ff3355; }
    .sb3-custom-alt { fill: #ff4d6a; }
    .sb3-custom-dark { fill: #ff3355; }
    .sb3-custom-arg { fill: #ff6680; stroke: #ff3355; }
    /* extension blocks, e.g. pen */
    .sb3-extension { fill: #0fbd8c; stroke: #0b8e69; }
    .sb3-extension-alt { fill: #0da57a; }
    .sb3-extension-line { stroke: #0da57a; }
    .sb3-extension-dark { fill: #0b8e69; }
    /* obsolete colors: chosen by hand, indicates invalid blocks */
    .sb3-obsolete { fill: #ed4242; stroke: #ca2b2b; }
    .sb3-obsolete-alt { fill: #db3333; }
    .sb3-obsolete-dark { fill: #ca2b2b; }
    /* grey: special color from the Scratch 3.0 design mockups */
    .sb3-grey { fill: #bfbfbf; stroke: #909090; }
    .sb3-grey-alt { fill: #b2b2b2; }
    .sb3-grey-dark { fill: #909090; }
    .sb3-input-color {
      stroke: #fff;
    }
    .sb3-input-number,
    .sb3-input-string {
      fill: #fff;
    }
    .sb3-literal-number,
    .sb3-literal-string,
    .sb3-literal-number-dropdown,
    .sb3-literal-dropdown {
      word-spacing: 0;
    }
    .sb3-literal-number,
    .sb3-literal-string {
      fill: #575e75;
    }
    .sb3-comment {
      fill: #ffffa5;
      stroke: #d0d1d2;
      stroke-width: 1;
    }
    .sb3-comment-line {
      fill: #ffff80;
    }
    .sb3-comment-label {
      font: 400 12pt Helevetica Neue, Helvetica, sans-serif;
      fill: #000;
      word-spacing: 0;
    }
    .sb3-diff {
      fill: none;
      stroke: #000;
    }
    .sb3-diff-ins {
      stroke-width: 2px;
    }
    .sb3-diff-del {
      stroke-width: 3px;
    }
  ]]></style>
  </defs>
  <metadata
     id="metadata14">
    <rdf:RDF>
      <cc:Work
         rdf:about="">
        <dc:format>image/svg+xml</dc:format>
        <dc:type
           rdf:resource="http://purl.org/dc/dcmitype/StillImage" />
      </cc:Work>
    </rdf:RDF>
  </metadata>
  <g
     id="g1796">
    <path
       id="ellipse40829"
       style="font-size:40px;line-height:1.25;letter-spacing:0px;word-spacing:0px;display:inline;fill:#261b0c;stroke-width:12.2982;stroke-linecap:round;stroke-dasharray:36.8946, 36.8946;paint-order:fill markers stroke"
       d="M 519.99976,259.99988 A 259.99988,259.99988 0 0 1 259.99988,519.99976 259.99988,259.99988 0 0 1 0,259.99988 259.99988,259.99988 0 0 1 259.99988,0 259.99988,259.99988 0 0 1 519.99976,259.99988 Z" />
    <path
       id="rect40832"
       style="font-size:40px;line-height:1.25;letter-spacing:0px;word-spacing:0px;display:inline;fill:none;stroke-width:17.8431;stroke-linecap:round;stroke-dasharray:53.5296, 53.5296;paint-order:fill markers stroke"
       d="M 7.3242187e-4,0.34814453 H 520.00012 V 519.65161 H 7.3242187e-4 Z" />
    <g
       id="g44770"
       transform="matrix(0.12999994,0,0,0.12999994,-1933.8115,-2076.5412)"
       style="display:inline">
      <g
         id="g44735"
         transform="translate(2.359375e-4)">
        <g
           id="g44721"
           transform="translate(3078.8191,2346.3203)">
          <path
             id="ellipse40834"
             style="font-size:40px;line-height:1.25;letter-spacing:0px;word-spacing:0px;fill:#ffe001;fill-opacity:1;stroke-width:34.3345;stroke-linecap:round;stroke-dasharray:103.004, 103.004;paint-order:fill markers stroke"
             d="m 12386.088,15077.082 v 100 h -93.877 v 100 100 100 100 100 100 100 100 100 h 93.877 93.877 93.879 v -100 -100 -100 -100 h 93.877 v -100 -100 -100 -100 h -93.877 v -100 -100 h -93.879 z m 469.389,0 v 100 100 100 100 h -93.877 v -100 h -93.877 v 100 100 100 100 h 8.816 a 23.570208,23.538664 0 0 0 18.041,8.43 23.570208,23.538664 0 0 0 18.041,-8.43 h 48.979 v 100 h 93.877 v 100 100 h 93.878 93.877 v -100 -100 -100 -100 -100 -100 -100 -100 -100 -100 h -93.877 z m 187.757,0 v 100 100 100 100 100 100 100 100 100 100 h 93.877 v -100 -100 -100 -100 -100 -100 -100 -100 -100 -100 z" />
          <path
             id="rect40912"
             style="font-size:40px;line-height:1.25;letter-spacing:0px;word-spacing:0px;fill:#ffffff;stroke-width:5.65001;stroke-linecap:round;paint-order:fill markers stroke"
             d="m 12292.21,15077.081 h 93.878 v 100 h -93.878 z" />
        </g>
        <path
           id="rect41214"
           style="font-size:40px;line-height:1.25;letter-spacing:0px;word-spacing:0px;fill:#dd8412;fill-opacity:1;stroke-width:5.65001;stroke-linecap:round;paint-order:fill markers stroke"
           d="m 15371.03,18423.402 v 100 h 93.877 93.877 93.879 v -100 h -93.879 -93.877 z" />
        <path
           id="rect41282"
           style="font-size:40px;line-height:1.25;letter-spacing:0px;word-spacing:0px;fill:#dd8412;fill-opacity:1;stroke-width:5.65001;stroke-linecap:round;paint-order:fill markers stroke"
           inkscape:transform-center-x="116"
           d="m 15652.664,18023.402 v 100 h 93.877 v -100 z m 93.877,100 v 100 h 93.877 v -100 z m 93.877,100 v 100 h 93.879 v -100 z" />
        <path
           id="rect41292"
           style="font-size:40px;line-height:1.25;letter-spacing:0px;word-spacing:0px;fill:#dd8412;fill-opacity:1;stroke-width:5.65001;stroke-linecap:round;paint-order:fill markers stroke"
           inkscape:transform-center-x="116"
           d="m 15934.298,18423.402 v 100 h 93.876 93.879 93.877 v -100 h -93.877 -93.879 z" />
      </g>
      <g
         id="g44743"
         transform="translate(144.0003,-3.2265625e-4)">
        <path
           id="rect40924"
           style="font-size:40px;line-height:1.25;letter-spacing:0px;word-spacing:0px;fill:#ffe001;fill-opacity:1;stroke-width:5.65001;stroke-linecap:round;paint-order:fill markers stroke"
           d="m 16402.906,17423.402 v 100 h -93.877 v 100 100 100 100 100 100 100 100 100 h 93.877 93.877 v -100 -100 -100 -100 -100 -100 -100 -100 -100 -100 z m 93.879,0 v 100 100 100 100 100 100 100 100 100 100 h 93.877 93.877 v -100 -100 -100 h -93.877 v -100 -100 -100 -100 h 93.877 v -100 -100 -100 h -93.877 z m 187.756,0 v 100 100 100 h 93.877 v 100 h 93.877 v -100 -100 -100 -100 h -93.877 z m 187.756,0 v 100 100 100 100 100 100 100 100 100 100 h 93.877 v -100 h 93.877 v -100 -100 -100 -100 -100 -100 -100 -100 h -93.877 v -100 z m 187.756,300 v 100 100 100 100 h 93.877 v -100 -100 -100 -100 z m -281.635,300 v 100 h -93.877 v 100 100 100 h 93.877 93.877 v -100 -100 -100 -100 z" />
        <path
           id="rect40984"
           style="font-size:40px;line-height:1.25;letter-spacing:0px;word-spacing:0px;fill:#ffffff;stroke-width:5.65001;stroke-linecap:round;paint-order:fill markers stroke"
           d="m 16309.029,17423.402 h 93.878 v 100 h -93.878 z" />
        <path
           id="rect41084"
           style="font-size:40px;line-height:1.25;letter-spacing:0px;word-spacing:0px;fill:#dd8412;fill-opacity:1;stroke-width:5.65001;stroke-linecap:round;paint-order:fill markers stroke"
           inkscape:transform-center-x="116"
           d="m 16590.662,17723.402 v 100 h 93.877 v -100 z m 93.879,0 v 100 h 93.877 v -100 z m 93.877,100 v 100 h 93.877 v -100 z" />
        <path
           id="rect41298"
           style="font-size:40px;line-height:1.25;letter-spacing:0px;word-spacing:0px;fill:#dd8412;fill-opacity:1;stroke-width:5.65001;stroke-linecap:round;paint-order:fill markers stroke"
           d="m 16309.03,18423.402 v 100 h 93.877 93.877 93.879 93.877 v -100 h -93.877 -93.879 -93.877 z m 375.512,0 v 100 h 93.877 93.877 93.878 v -100 h -93.878 -93.877 z" />
        <path
           id="rect41316"
           style="font-size:40px;line-height:1.25;letter-spacing:0px;word-spacing:0px;fill:#dd8412;stroke-width:5.65001;stroke-linecap:round;paint-order:fill markers stroke"
           inkscape:transform-center-x="116"
           d="m 16966.174,18323.402 h 93.877 v 100 h -93.877 z" />
        <path
           id="rect41318"
           style="font-size:40px;line-height:1.25;letter-spacing:0px;word-spacing:0px;fill:#dd8412;stroke-width:5.65001;stroke-linecap:round;paint-order:fill markers stroke"
           inkscape:transform-center-x="116"
           d="m 17060.053,18123.402 h 93.877 v 100 h -93.877 z" />
      </g>
      <g
         id="g44749"
         transform="translate(288.0003,1.9996773)">
        <path
           id="rect40982"
           style="font-size:40px;line-height:1.25;letter-spacing:0px;word-spacing:0px;fill:#ffe001;fill-opacity:1;stroke-width:5.65001;stroke-linecap:round;paint-order:fill markers stroke"
           d="m 17434.785,17421.402 v 100 100 100 100 100 100 100 100 100 100 h 93.877 93.877 v -100 -100 -100 h -93.877 v -100 -100 -100 -100 h 93.877 v -100 -100 -100 h -93.877 z m 187.756,0 v 100 100 100 h 93.877 93.877 v -100 -100 -100 h -93.877 z m 187.756,0 v 100 100 100 100 h 93.877 93.877 v -100 -100 -100 -100 h -93.877 z m -563.268,100 v 100 100 100 100 100 100 100 100 h 93.877 v 100 h 93.877 v -100 -100 -100 -100 -100 -100 -100 -100 -100 h -93.877 z m 751.024,0 v 100 100 100 h 93.877 v -100 -100 -100 z m -187.756,500 v 100 100 100 100 h 93.877 93.877 v -100 -100 -100 -100 h -93.877 z m 187.756,0 v 100 100 100 h 93.877 v -100 -100 -100 z m -375.512,100 v 100 100 100 h 93.877 93.877 v -100 -100 -100 h -93.877 z" />
        <path
           id="rect41012"
           style="font-size:40px;line-height:1.25;letter-spacing:0px;word-spacing:0px;fill:#ffffff;stroke-width:5.65001;stroke-linecap:round;paint-order:fill markers stroke"
           d="m 17340.906,17421.402 h 93.878 v 100 h -93.878 z" />
        <path
           id="rect41090"
           style="font-size:40px;line-height:1.25;letter-spacing:0px;word-spacing:0px;fill:#dd8412;fill-opacity:1;stroke-width:5.65001;stroke-linecap:round;paint-order:fill markers stroke"
           inkscape:transform-center-x="116"
           d="m 17528.662,17721.402 v 100 h 93.877 v -100 z m 93.879,0 v 100 h 93.877 93.877 v -100 h -93.877 z m 187.756,100 v 100 h 93.877 93.877 v -100 h -93.877 z m 187.756,0 v 100 h 93.877 v -100 z" />
        <path
           id="rect41320"
           style="font-size:40px;line-height:1.25;letter-spacing:0px;word-spacing:0px;fill:#dd8412;fill-opacity:1;stroke-width:5.65001;stroke-linecap:round;paint-order:fill markers stroke"
           d="m 17247.029,18321.402 v 100 h 93.877 v -100 z m 93.877,100 v 100 h 93.877 93.879 93.877 v -100 h -93.877 -93.879 z m 657.147,-100 v 100 h 93.877 v -100 z m -375.51,100 v 100 h 93.877 93.877 93.877 93.877 v -100 h -93.877 -93.877 -93.877 z" />
      </g>
    </g>
    <path
       id="rect41356"
       style="font-size:40px;line-height:1.25;letter-spacing:0px;word-spacing:0px;display:inline;fill:#ffffff;stroke-width:0.734501;stroke-linecap:round;paint-order:fill markers stroke"
       d="m 298.91382,409.24707 h 12.20407 v 12.99999 h -12.20407 z" />
    <path
       id="rect41358"
       style="font-size:40px;line-height:1.25;letter-spacing:0px;word-spacing:0px;display:inline;fill:#ffffff;stroke-width:0.734501;stroke-linecap:round;paint-order:fill markers stroke"
       d="m 480.979,236.3844 h 12.20408 v 12.99999 H 480.979 Z" />
    <path
       id="rect41360"
       style="font-size:40px;line-height:1.25;letter-spacing:0px;word-spacing:0px;display:inline;fill:#ffffff;stroke-width:0.734501;stroke-linecap:round;paint-order:fill markers stroke"
       d="m 84.477295,368.30225 h 12.204076 v 12.99999 H 84.477295 Z" />
    <path
       id="rect41362"
       style="font-size:40px;line-height:1.25;letter-spacing:0px;word-spacing:0px;display:inline;fill:#ffffff;stroke-width:0.734501;stroke-linecap:round;paint-order:fill markers stroke"
       d="m 300.49109,92.42627 h 12.20407 v 12.99999 h -12.20407 z" />
    <path
       id="rect41364"
       style="font-size:40px;line-height:1.25;letter-spacing:0px;word-spacing:0px;display:inline;fill:#ffffff;fill-opacity:1;stroke-width:0.734501;stroke-linecap:round;paint-order:fill markers stroke"
       d="m 193.31492,368.30221 v 13 h -12.204 v 13 h 12.204 v 13 h 12.2042 v -13 h 12.204 v -13 h -12.204 v -13 z" />
    <path
       id="rect41388"
       style="font-size:40px;line-height:1.25;letter-spacing:0px;word-spacing:0px;display:inline;fill:#ffffff;fill-opacity:1;stroke-width:0.734501;stroke-linecap:round;paint-order:fill markers stroke"
       d="m 377.75764,380.80391 v 13 h -12.20401 v 13 h 12.20401 v 13 h 12.20426 v -13 h 12.20401 v -13 H 389.9619 v -13 z" />
    <path
       id="rect41400"
       style="font-size:40px;line-height:1.25;letter-spacing:0px;word-spacing:0px;display:inline;fill:#ffffff;fill-opacity:1;stroke-width:0.734501;stroke-linecap:round;paint-order:fill markers stroke"
       d="m 231.68142,48.155007 v 13 h -12.204 v 13 h 12.204 v 13 h 12.2042 v -13 h 12.204 v -13 h -12.204 v -13 z" />
    <path
       id="rect41412"
       style="font-size:40px;line-height:1.25;letter-spacing:0px;word-spacing:0px;display:inline;fill:#ffffff;stroke-width:0.734501;stroke-linecap:round;paint-order:fill markers stroke"
       d="m 107.47449,112.39526 h 12.20407 v 13 h -12.20407 z" />
    <path
       id="rect41414"
       style="font-size:40px;line-height:1.25;letter-spacing:0px;word-spacing:0px;display:inline;fill:#ffffff;stroke-width:0.734501;stroke-linecap:round;paint-order:fill markers stroke"
       d="m 21.633911,281.66125 h 12.204076 v 13 H 21.633911 Z" />
    <path
       id="rect41416"
       style="font-size:40px;line-height:1.25;letter-spacing:0px;word-spacing:0px;display:inline;fill:#ffffff;stroke-width:0.734501;stroke-linecap:round;paint-order:fill markers stroke"
       d="m 216.84753,465.37378 h 12.20408 v 12.99999 h -12.20408 z" />
    <path
       id="rect41418"
       style="font-size:40px;line-height:1.25;letter-spacing:0px;word-spacing:0px;display:inline;fill:#ffffff;stroke-width:0.734501;stroke-linecap:round;paint-order:fill markers stroke"
       d="M 390.91193,133.06763 H 403.116 v 12.99999 h -12.20407 z" />
    <path
       id="rect55226"
       style="font-size:40px;line-height:1.25;letter-spacing:0px;word-spacing:0px;display:inline;fill:#ffffff;stroke-width:0.734501;stroke-linecap:round;paint-order:fill markers stroke"
       d="m 190.88562,136.00903 h 12.20408 v 13 h -12.20408 z" />
  </g>
</svg>
