<?xml version="1.0" encoding="UTF-8"?>
<svg enable-background="new" version="1.1" viewBox="0 0 519.91 519.22" xmlns="http://www.w3.org/2000/svg" xmlns:cc="http://creativecommons.org/ns#" xmlns:dc="http://purl.org/dc/elements/1.1/" xmlns:rdf="http://www.w3.org/1999/02/22-rdf-syntax-ns#" xmlns:xlink="http://www.w3.org/1999/xlink">
<defs>
<filter>
<feBlend in2="BackgroundImage" mode="multiply"/>
</filter>
<filter>
<feBlend in2="BackgroundImage" mode="multiply"/>
</filter>
<style><![CDATA[ .sb3-label {
      font: 500 12pt Helevetica Neue, Helvetica, sans-serif;
      fill: #fff;
      word-spacing: +1pt;
    }
    .sb3-motion { fill: #4c97ff; stroke: #3373cc; }
    .sb3-motion-alt { fill: #4280d7; }
    .sb3-motion-dark { fill: #4c97ff; }
    .sb3-looks { fill: #9966ff; stroke: #774dcb; }
    .sb3-looks-alt { fill: #855cd6; }
    .sb3-looks-dark { fill: #bd42bd; }
    .sb3-sound { fill: #cf63cf; stroke: #bd42bd; }
    .sb3-sound-alt { fill: #c94fc9; }
    .sb3-sound-dark { fill: #bd42bd; }
    .sb3-control { fill: #ffab19; stroke: #cf8b17; }
    .sb3-control-alt { fill: #ec9c13; }
    .sb3-control-dark { fill: #cf8b17; }
    .sb3-events { fill: #ffbf00; stroke: #cc9900; }
    .sb3-events-alt { fill: #e6ac00; }
    .sb3-events-dark { fill: #cc9900; }
    .sb3-sensing { fill: #5cb1d6; stroke: #2e8eb8; }
    .sb3-sensing-alt { fill: #47a8d1; }
    .sb3-sensing-dark { fill: #2e8eb8; }
    .sb3-operators { fill: #59c059; stroke: #389438; }
    .sb3-operators-alt { fill: #46b946; }
    .sb3-operators-dark { fill: #389438; }
    .sb3-variables { fill: #ff8c1a; stroke: #db6e00; }
    .sb3-variables-alt { fill: #ff8000; }
    .sb3-variables-dark { fill: #db6e00; }
    .sb3-list { fill: #ff661a; stroke: #e64d00; }
    .sb3-list-alt { fill: #ff5500; }
    .sb3-list-dark { fill: #e64d00; }
    .sb3-custom { fill: #ff6680; stroke: #ff3355; }
    .sb3-custom-alt { fill: #ff4d6a; }
    .sb3-custom-dark { fill: #ff3355; }
    .sb3-custom-arg { fill: #ff6680; stroke: #ff3355; }
    /* extension blocks, e.g. pen */
    .sb3-extension { fill: #0fbd8c; stroke: #0b8e69; }
    .sb3-extension-alt { fill: #0da57a; }
    .sb3-extension-line { stroke: #0da57a; }
    .sb3-extension-dark { fill: #0b8e69; }
    /* obsolete colors: chosen by hand, indicates invalid blocks */
    .sb3-obsolete { fill: #ed4242; stroke: #ca2b2b; }
    .sb3-obsolete-alt { fill: #db3333; }
    .sb3-obsolete-dark { fill: #ca2b2b; }
    /* grey: special color from the Scratch 3.0 design mockups */
    .sb3-grey { fill: #bfbfbf; stroke: #909090; }
    .sb3-grey-alt { fill: #b2b2b2; }
    .sb3-grey-dark { fill: #909090; }
    .sb3-input-color {
      stroke: #fff;
    }
    .sb3-input-number,
    .sb3-input-string {
      fill: #fff;
    }
    .sb3-literal-number,
    .sb3-literal-string,
    .sb3-literal-number-dropdown,
    .sb3-literal-dropdown {
      word-spacing: 0;
    }
    .sb3-literal-number,
    .sb3-literal-string {
      fill: #575e75;
    }
    .sb3-comment {
      fill: #ffffa5;
      stroke: #d0d1d2;
      stroke-width: 1;
    }
    .sb3-comment-line {
      fill: #ffff80;
    }
    .sb3-comment-label {
      font: 400 12pt Helevetica Neue, Helvetica, sans-serif;
      fill: #000;
      word-spacing: 0;
    }
    .sb3-diff {
      fill: none;
      stroke: #000;
    }
    .sb3-diff-ins {
      stroke-width: 2px;
    }
    .sb3-diff-del {
      stroke-width: 3px;
    }
  ]]></style>
</defs>
<metadata>
<rdf:RDF>
<cc:Work rdf:about="">
<dc:format>image/svg+xml</dc:format>
<dc:type rdf:resource="http://purl.org/dc/dcmitype/StillImage"/>
</cc:Work>
</rdf:RDF>
</metadata>
<g transform="translate(-9260.1 -3436.5)" font-size="40px" letter-spacing="0px" word-spacing="0px">
<flowRoot fill="#000000" font-family="sans-serif" style="line-height:1.25" xml:space="preserve"><flowRegion><rect x="-1029.5" y="1912.6" width="65.761" height="73.186" style=""/></flowRegion><flowPara/></flowRoot>
<flowRoot fill="#000000" font-family="sans-serif" style="line-height:1.25" xml:space="preserve"><flowRegion><rect x="7430.3" y="5171.3" width="461.03" height="166.17" style=""/></flowRegion><flowPara/></flowRoot>
<text x="3617" y="2319.25" font-family="sans-serif" style="line-height:1.25" xml:space="preserve"><tspan x="3617" y="2319.25"/></text>
<g transform="translate(-13 668.82)" style="line-height:1.25" aria-label="L'ATELIER NUMERIQUE">
<use transform="translate(6542 3282.4)" width="100%" height="100%" href="#sb3-greenFlag"/>
<use transform="translate(6610 3563.4)" width="100%" height="100%" href="#sb3-loopArrow"/>
<use transform="translate(6740 3436.4)" width="100%" height="100%" href="#sb3-dropdownArrow"/>
<use transform="translate(6660 3484.4)" width="100%" height="100%" href="#sb3-dropdownArrow"/>
<g transform="matrix(1.1554 0 0 1.1538 510.79 -680.15)">
<circle cx="7809" cy="3213.2" r="225" fill="#261b0c" stroke-dasharray="31.928, 31.928" stroke-linecap="round" stroke-width="10.643" style="paint-order:fill markers stroke"/>
<circle cx="7687.3" cy="3083" r="3.8891" fill="#fff" stroke-dasharray="17.007, 17.007" stroke-linecap="round" stroke-width="5.669" style="paint-order:fill markers stroke"/>
<circle cx="7757.3" cy="3071.3" r="3.8891" fill="#fff" stroke-dasharray="17.007, 17.007" stroke-linecap="round" stroke-width="5.669" style="paint-order:fill markers stroke"/>
<circle cx="7805.5" cy="3037.9" r="3.8891" fill="#fff" stroke-dasharray="17.007, 17.007" stroke-linecap="round" stroke-width="5.669" style="paint-order:fill markers stroke"/>
<circle cx="7720.9" cy="3042.2" r="2.6517" fill="#fff" stroke-dasharray="11.5957, 11.5957" stroke-linecap="round" stroke-width="3.8652" style="paint-order:fill markers stroke"/>
<circle cx="7640.3" cy="3208.5" r="3.8891" fill="#fff" stroke-dasharray="17.007, 17.007" stroke-linecap="round" stroke-width="5.669" style="paint-order:fill markers stroke"/>
<circle cx="7615" cy="3259.6" r="2.6517" fill="#fff" stroke-dasharray="11.5957, 11.5957" stroke-linecap="round" stroke-width="3.8652" style="paint-order:fill markers stroke"/>
<circle cx="7655.1" cy="3253.2" r="2.6517" fill="#fff" stroke-dasharray="11.5957, 11.5957" stroke-linecap="round" stroke-width="3.8652" style="paint-order:fill markers stroke"/>
<circle cx="7701.2" cy="3228.5" r="2.6517" fill="#fff" stroke-dasharray="11.5957, 11.5957" stroke-linecap="round" stroke-width="3.8652" style="paint-order:fill markers stroke"/>
<circle cx="8010.1" cy="3267.9" r="3.8891" fill="#fff" stroke-dasharray="17.007, 17.007" stroke-linecap="round" stroke-width="5.669" style="paint-order:fill markers stroke"/>
<circle cx="7997.2" cy="3218.2" r="2.6517" fill="#fff" stroke-dasharray="11.5957, 11.5957" stroke-linecap="round" stroke-width="3.8652" style="paint-order:fill markers stroke"/>
<path d="m7910.2 3078.1a37.749 37.749 0 0 0-21.574 34.068 37.749 37.749 0 0 0 37.748 37.75 37.749 37.749 0 0 0 36.32-27.574 35 35 0 0 1-22.098 7.9336 35 35 0 0 1-35-35 35 35 0 0 1 4.6035-17.178z" fill="#fff" stroke-dasharray="25.5753, 25.5753" stroke-linecap="round" stroke-width="8.5251" style="paint-order:fill markers stroke"/>
<circle cx="7840.4" cy="3077.9" r="3.8891" fill="#fff" stroke-dasharray="17.007, 17.007" stroke-linecap="round" stroke-width="5.669" style="paint-order:fill markers stroke"/>
<g transform="matrix(.95713 0 0 .95713 1163.6 -117.77)">
<path class="sb3-control" d="m6801 3392.4c0-2.2091 1.7909-4 4-4h8c2 0 3 1 4 2l4 4c1 1 2 2 4 2h12c2 0 3-1 4-2l4-4c1-1 2-2 4-2h108c2.2091 0 4 1.7909 4 4v40c0 2.2091-1.7909 4-4 4h-92c-2 0-3 1-4 2l-4 4c-1 1-2 2-4 2h-12c-2 0-3-1-4-2l-4-4c-1-1-2-2-4-2h-8c-2.2091 0-4 1.7909-4 4v136.06c0 2.2092 1.7909 4 4 4h8c2 0 3 1 4 2l4 4c1 1 2 2 4 2h12c2 0 3-1 4-2l4-4c1-1 2-2 4-2h92c2.2091 0 4 1.7909 4 4v24c0 2.2092-1.7909 4-4 4h-108c-2 0-3 1-4 2l-4 4c-1 1-2 2-4 2h-12c-2 0-3-1-4-2l-4-4c-1-1-2-2-4-2h-8c-2.2091 0-4-1.7908-4-4z"/>
<path d="m6815.6 3411q-0.2422-0.1406-0.5312-0.2031-0.2813-0.07-0.625-0.07-1.2188 0-1.875 0.7968-0.6485 0.7891-0.6485 2.2735v4.6094h-1.4453v-8.75h1.4453v1.3593q0.4532-0.7968 1.1797-1.1797 0.7266-0.3906 1.7656-0.3906 0.1485 0 0.3282 0.024 0.1797 0.016 0.3984 0.055z" fill="#fff"/>
<path d="m6824.2 3413.7v0.7031h-6.6093q0.094 1.4844 0.8906 2.2656 0.8047 0.7735 2.2344 0.7735 0.8281 0 1.6015-0.2032 0.7813-0.2031 1.5469-0.6093v1.3593q-0.7734 0.3282-1.5859 0.5-0.8125 0.1719-1.6485 0.1719-2.0937 0-3.3203-1.2187-1.2187-1.2188-1.2187-3.2969 0-2.1484 1.1562-3.4063 1.1641-1.2656 3.1328-1.2656 1.7657 0 2.7891 1.1406 1.0312 1.1329 1.0312 3.086zm-1.4375-0.4219q-0.016-1.1797-0.664-1.8828-0.6406-0.7031-1.7031-0.7031-1.2032 0-1.9297 0.6797-0.7188 0.6796-0.8282 1.914zm-1.3828-7.6406h1.5547l-2.5469 2.9375h-1.1953z" fill="#fff"/>
<path d="m6828 3417.1v4.6406h-1.4453v-12.078h1.4453v1.3281q0.4532-0.7813 1.1407-1.1563 0.6953-0.3828 1.6562-0.3828 1.5938 0 2.586 1.2656 1 1.2657 1 3.3282t-1 3.3281q-0.9922 1.2656-2.586 1.2656-0.9609 0-1.6562-0.375-0.6875-0.3828-1.1407-1.164zm4.8907-3.0547q0-1.586-0.6563-2.4844-0.6484-0.9063-1.789-0.9063-1.1407 0-1.7969 0.9063-0.6485 0.8984-0.6485 2.4844 0 1.5859 0.6485 2.4922 0.6562 0.8984 1.7969 0.8984 1.1406 0 1.789-0.8984 0.6563-0.9063 0.6563-2.4922z" fill="#fff"/>
<path d="m6844.2 3413.7v0.7031h-6.6093q0.094 1.4844 0.8906 2.2656 0.8047 0.7735 2.2344 0.7735 0.8281 0 1.6015-0.2032 0.7813-0.2031 1.5469-0.6093v1.3593q-0.7734 0.3282-1.5859 0.5-0.8125 0.1719-1.6485 0.1719-2.0937 0-3.3203-1.2187-1.2187-1.2188-1.2187-3.2969 0-2.1484 1.1562-3.4063 1.1641-1.2656 3.1328-1.2656 1.7657 0 2.7891 1.1406 1.0312 1.1329 1.0312 3.086zm-1.4375-0.4219q-0.016-1.1797-0.664-1.8828-0.6406-0.7031-1.7031-0.7031-1.2032 0-1.9297 0.6797-0.7188 0.6796-0.8282 1.914zm-1.3828-7.6406h1.5547l-2.5469 2.9375h-1.1953z" fill="#fff"/>
<path d="m6848 3407.2v2.4844h2.9609v1.1171h-2.9609v4.75q0 1.0704 0.2891 1.375 0.2968 0.3047 1.1953 0.3047h1.4765v1.2032h-1.4765q-1.6641 0-2.2969-0.6172-0.6328-0.625-0.6328-2.2657v-4.75h-1.0547v-1.1171h1.0547v-2.4844z" fill="#fff"/>
<path d="m6860.3 3413.7v0.7031h-6.6093q0.094 1.4844 0.8906 2.2656 0.8047 0.7735 2.2344 0.7735 0.8281 0 1.6015-0.2032 0.7813-0.2031 1.5469-0.6093v1.3593q-0.7734 0.3282-1.5859 0.5-0.8125 0.1719-1.6485 0.1719-2.0937 0-3.3203-1.2187-1.2187-1.2188-1.2187-3.2969 0-2.1484 1.1562-3.4063 1.1641-1.2656 3.1328-1.2656 1.7656 0 2.7891 1.1406 1.0312 1.1329 1.0312 3.086zm-1.4375-0.4219q-0.016-1.1797-0.664-1.8828-0.6407-0.7031-1.7032-0.7031-1.2031 0-1.9296 0.6797-0.7188 0.6796-0.8282 1.914z" fill="#fff"/>
<path d="m6867.8 3411q-0.2422-0.1406-0.5312-0.2031-0.2813-0.07-0.625-0.07-1.2188 0-1.875 0.7968-0.6485 0.7891-0.6485 2.2735v4.6094h-1.4453v-8.75h1.4453v1.3593q0.4532-0.7968 1.1797-1.1797 0.7266-0.3906 1.7656-0.3906 0.1485 0 0.3282 0.024 0.1797 0.016 0.3984 0.055z" fill="#fff"/>
<path class="sb3-control sb3-input sb3-input-number" d="m6888.1 3396.4h8c8.864 0 16 7.136 16 16s-7.136 16-16 16h-8c-8.864 0-16-7.136-16-16s7.136-16 16-16z" fill="#fff" stroke="#cf8b17"/>
<path d="m6883.5 3417.1h2.5782v-8.8984l-2.8047 0.5625v-1.4375l2.789-0.5625h1.5782v10.336h2.5781v1.3282h-6.7188z" fill="#575e75"/>
<path d="m6896.8 3407.8q-1.2188 0-1.836 1.2031-0.6093 1.1953-0.6093 3.6015 0 2.3985 0.6093 3.6016 0.6172 1.1953 1.836 1.1953 1.2265 0 1.8359-1.1953 0.6172-1.2031 0.6172-3.6016 0-2.4062-0.6172-3.6015-0.6094-1.2031-1.8359-1.2031zm0-1.25q1.9609 0 2.9922 1.5546 1.039 1.5469 1.039 4.5 0 2.9454-1.039 4.5-1.0313 1.5469-2.9922 1.5469-1.961 0-3-1.5469-1.0313-1.5546-1.0313-4.5 0-2.9531 1.0313-4.5 1.039-1.5546 3-1.5546z" fill="#575e75"/>
<path d="m6921.9 3406.3v1.1953h-1.375q-0.7734 0-1.0781 0.3125-0.2969 0.3125-0.2969 1.125v0.7735h2.3672v1.1171h-2.3672v7.6329h-1.4453v-7.6329h-1.375v-1.1171h1.375v-0.6094q0-1.461 0.6797-2.125 0.6797-0.6719 2.1562-0.6719z" fill="#fff"/>
<path d="m6926.5 3410.7q-1.1562 0-1.8281 0.9062-0.6719 0.8985-0.6719 2.4688t0.6641 2.4765q0.6719 0.8985 1.8359 0.8985 1.1485 0 1.8204-0.9063 0.6718-0.9062 0.6718-2.4687 0-1.5547-0.6718-2.461-0.6719-0.914-1.8204-0.914zm0-1.2188q1.875 0 2.9454 1.2188 1.0703 1.2187 1.0703 3.375 0 2.1484-1.0703 3.375-1.0704 1.2187-2.9454 1.2187-1.8828 0-2.9531-1.2187-1.0625-1.2266-1.0625-3.375 0-2.1563 1.0625-3.375 1.0703-1.2188 2.9531-1.2188z" fill="#fff"/>
<path d="m6932.9 3409.7h1.4375v8.75h-1.4375zm0-3.4063h1.4375v1.8203h-1.4375z" fill="#fff"/>
<path d="m6943 3409.9v1.3593q-0.6094-0.3125-1.2656-0.4687-0.6563-0.1563-1.3594-0.1563-1.0703 0-1.6094 0.3282-0.5312 0.3281-0.5312 0.9843 0 0.5 0.3828 0.7891 0.3828 0.2813 1.5391 0.5391l0.4922 0.1093q1.5312 0.3282 2.1718 0.9297 0.6485 0.5938 0.6485 1.6641 0 1.2187-0.9688 1.9297-0.9609 0.7109-2.6484 0.7109-0.7031 0-1.4688-0.1406-0.7578-0.1328-1.6015-0.4063v-1.4843q0.7968 0.414 1.5703 0.625 0.7734 0.2031 1.5312 0.2031 1.0157 0 1.5625-0.3438 0.5469-0.3515 0.5469-0.9843 0-0.586-0.3984-0.8985-0.3907-0.3125-1.7266-0.6015l-0.5-0.1172q-1.3359-0.2813-1.9297-0.8594-0.5937-0.5859-0.5937-1.6016 0-1.2343 0.875-1.9062t2.4843-0.6719q0.7969 0 1.5 0.1172 0.7032 0.1172 1.2969 0.3516z" fill="#fff"/>
<path class="sb3-motion" d="m6817 3440.4c0-2.2091 1.7909-4 4-4h8c2 0 3 1 4 2l4 4c1 1 2 2 4 2h12c2 0 3-1 4-2l4-4c1-1 2-2 4-2h132c2.2091 0 4 1.7909 4 4v40c0 2.2091-1.7909 4-4 4h-132c-2 0-3 1-4 2l-4 4c-1 1-2 2-4 2h-12c-2 0-3-1-4-2l-4-4c-1-1-2-2-4-2h-8c-2.2091 0-4-1.7909-4-4z"/>
<path d="m6830.5 3462q-1.7422 0-2.4141 0.3985-0.6719 0.3984-0.6719 1.3593 0 0.7657 0.5 1.2188 0.5078 0.4453 1.375 0.4453 1.1953 0 1.9141-0.8438 0.7266-0.8515 0.7266-2.2578v-0.3203zm2.8672-0.5937v4.9922h-1.4375v-1.3282q-0.4922 0.7969-1.2266 1.1797-0.7344 0.375-1.7969 0.375-1.3437 0-2.1406-0.75-0.7891-0.7578-0.7891-2.0234 0-1.4766 0.9844-2.2266 0.9922-0.75 2.9531-0.75h2.0157v-0.1406q0-0.9922-0.6563-1.5313-0.6484-0.5468-1.8281-0.5468-0.75 0-1.461 0.1797-0.7109 0.1796-1.3671 0.539v-1.3281q0.789-0.3047 1.5312-0.4531 0.7422-0.1563 1.4453-0.1563 1.8985 0 2.836 0.9844t0.9375 2.9844z" fill="#fff"/>
<path d="m6835.3 3457.7h1.5235l2.7344 7.3437 2.7343-7.3437h1.5235l-3.2813 8.75h-1.9531z" fill="#fff"/>
<path d="m6849.8 3462q-1.7422 0-2.4141 0.3985-0.6718 0.3984-0.6718 1.3593 0 0.7657 0.5 1.2188 0.5078 0.4453 1.375 0.4453 1.1953 0 1.914-0.8438 0.7266-0.8515 0.7266-2.2578v-0.3203zm2.8672-0.5937v4.9922h-1.4375v-1.3282q-0.4922 0.7969-1.2266 1.1797-0.7343 0.375-1.7968 0.375-1.3438 0-2.1407-0.75-0.789-0.7578-0.789-2.0234 0-1.4766 0.9843-2.2266 0.9922-0.75 2.9532-0.75h2.0156v-0.1406q0-0.9922-0.6563-1.5313-0.6484-0.5468-1.8281-0.5468-0.75 0-1.4609 0.1797-0.711 0.1796-1.3672 0.539v-1.3281q0.7891-0.3047 1.5312-0.4531 0.7422-0.1563 1.4454-0.1563 1.8984 0 2.8359 0.9844t0.9375 2.9844z" fill="#fff"/>
<path d="m6862.9 3461.1v5.2813h-1.4375v-5.2344q0-1.2422-0.4844-1.8594t-1.4531-0.6172q-1.1641 0-1.836 0.7422-0.6718 0.7422-0.6718 2.0234v4.9454h-1.4454v-8.75h1.4454v1.3593q0.5156-0.789 1.2109-1.1797 0.7031-0.3906 1.6172-0.3906 1.5078 0 2.2812 0.9375 0.7735 0.9297 0.7735 2.7422z" fill="#fff"/>
<path d="m6872 3458v1.3437q-0.6093-0.3359-1.2265-0.5-0.6094-0.1718-1.2344-0.1718-1.3984 0-2.1719 0.8906-0.7734 0.8828-0.7734 2.4844 0 1.6015 0.7734 2.4922 0.7735 0.8828 2.1719 0.8828 0.625 0 1.2344-0.1641 0.6172-0.1719 1.2265-0.5078v1.3281q-0.6015 0.2813-1.25 0.4219-0.6406 0.1406-1.3672 0.1406-1.9765 0-3.1406-1.2422-1.164-1.2422-1.164-3.3515 0-2.1407 1.1718-3.3672 1.1797-1.2266 3.2266-1.2266 0.6641 0 1.2969 0.1406 0.6328 0.1329 1.2265 0.4063z" fill="#fff"/>
<path d="m6882 3461.7v0.7031h-6.6094q0.094 1.4844 0.8907 2.2656 0.8046 0.7735 2.2343 0.7735 0.8282 0 1.6016-0.2032 0.7812-0.2031 1.5469-0.6093v1.3593q-0.7735 0.3282-1.586 0.5-0.8125 0.1719-1.6484 0.1719-2.0938 0-3.3203-1.2187-1.2188-1.2188-1.2188-3.2969 0-2.1484 1.1563-3.4063 1.164-1.2656 3.1328-1.2656 1.7656 0 2.7891 1.1406 1.0312 1.1329 1.0312 3.086zm-1.4375-0.4219q-0.016-1.1797-0.6641-1.8828-0.6406-0.7031-1.7031-0.7031-1.2031 0-1.9297 0.6797-0.7187 0.6796-0.8281 1.914z" fill="#fff"/>
<path d="m6889.4 3459q-0.2422-0.1406-0.5313-0.2031-0.2812-0.07-0.625-0.07-1.2187 0-1.875 0.7968-0.6484 0.7891-0.6484 2.2735v4.6094h-1.4453v-8.75h1.4453v1.3593q0.4531-0.7968 1.1797-1.1797 0.7266-0.3906 1.7656-0.3906 0.1485 0 0.3281 0.024 0.1797 0.016 0.3985 0.055z" fill="#fff"/>
<path d="m6901.7 3459v-4.7344h1.4375v12.156h-1.4375v-1.3125q-0.4531 0.7812-1.1484 1.164-0.6875 0.375-1.6563 0.375-1.5859 0-2.5859-1.2656-0.9922-1.2656-0.9922-3.3281t0.9922-3.3282q1-1.2656 2.5859-1.2656 0.9688 0 1.6563 0.3828 0.6953 0.375 1.1484 1.1563zm-4.8984 3.0547q0 1.5859 0.6484 2.4922 0.6563 0.8984 1.7969 0.8984t1.7969-0.8984q0.6562-0.9063 0.6562-2.4922 0-1.586-0.6562-2.4844-0.6563-0.9063-1.7969-0.9063t-1.7969 0.9063q-0.6484 0.8984-0.6484 2.4844z" fill="#fff"/>
<path d="m6913.6 3461.7v0.7031h-6.6093q0.094 1.4844 0.8906 2.2656 0.8047 0.7735 2.2344 0.7735 0.8281 0 1.6015-0.2032 0.7813-0.2031 1.5469-0.6093v1.3593q-0.7734 0.3282-1.5859 0.5-0.8125 0.1719-1.6485 0.1719-2.0937 0-3.3203-1.2187-1.2187-1.2188-1.2187-3.2969 0-2.1484 1.1562-3.4063 1.1641-1.2656 3.1328-1.2656 1.7656 0 2.7891 1.1406 1.0312 1.1329 1.0312 3.086zm-1.4375-0.4219q-0.016-1.1797-0.664-1.8828-0.6407-0.7031-1.7032-0.7031-1.2031 0-1.9296 0.6797-0.7188 0.6796-0.8282 1.914z" fill="#fff"/>
<path class="sb3-motion sb3-input sb3-input-number" d="m6936 3444.4h8c8.864 0 16 7.136 16 16s-7.136 16-16 16h-8c-8.864 0-16-7.136-16-16s7.136-16 16-16z" fill="#fff" stroke="#3373cc"/>
<path d="m6931.5 3465.1h2.5781v-8.8984l-2.8047 0.5625v-1.4375l2.7891-0.5625h1.5781v10.336h2.5781v1.3282h-6.7187z" fill="#575e75"/>
<path d="m6944.8 3455.8q-1.2187 0-1.8359 1.2031-0.6094 1.1953-0.6094 3.6015 0 2.3985 0.6094 3.6016 0.6172 1.1953 1.8359 1.1953 1.2266 0 1.836-1.1953 0.6171-1.2031 0.6171-3.6016 0-2.4062-0.6171-3.6015-0.6094-1.2031-1.836-1.2031zm0-1.25q1.961 0 2.9922 1.5546 1.0391 1.5469 1.0391 4.5 0 2.9454-1.0391 4.5-1.0312 1.5469-2.9922 1.5469-1.9609 0-3-1.5469-1.0312-1.5546-1.0312-4.5 0-2.9531 1.0312-4.5 1.0391-1.5546 3-1.5546z" fill="#575e75"/>
<path d="m6967.9 3465.1v4.6406h-1.4453v-12.078h1.4453v1.3281q0.4532-0.7813 1.1407-1.1563 0.6953-0.3828 1.6562-0.3828 1.5938 0 2.586 1.2656 1 1.2657 1 3.3282t-1 3.3281q-0.9922 1.2656-2.586 1.2656-0.9609 0-1.6562-0.375-0.6875-0.3828-1.1407-1.164zm4.8907-3.0547q0-1.586-0.6563-2.4844-0.6484-0.9063-1.789-0.9063-1.1407 0-1.7969 0.9063-0.6485 0.8984-0.6485 2.4844 0 1.5859 0.6485 2.4922 0.6562 0.8984 1.7969 0.8984 1.1406 0 1.789-0.8984 0.6563-0.9063 0.6563-2.4922z" fill="#fff"/>
<path d="m6980.6 3462q-1.7422 0-2.414 0.3985-0.6719 0.3984-0.6719 1.3593 0 0.7657 0.5 1.2188 0.5078 0.4453 1.375 0.4453 1.1953 0 1.9141-0.8438 0.7265-0.8515 0.7265-2.2578v-0.3203zm2.8672-0.5937v4.9922h-1.4375v-1.3282q-0.4922 0.7969-1.2265 1.1797-0.7344 0.375-1.7969 0.375-1.3438 0-2.1406-0.75-0.7891-0.7578-0.7891-2.0234 0-1.4766 0.9844-2.2266 0.9922-0.75 2.9531-0.75h2.0156v-0.1406q0-0.9922-0.6562-1.5313-0.6485-0.5468-1.8282-0.5468-0.75 0-1.4609 0.1797-0.7109 0.1796-1.3672 0.539v-1.3281q0.7891-0.3047 1.5313-0.4531 0.7422-0.1563 1.4453-0.1563 1.8984 0 2.8359 0.9844t0.9375 2.9844z" fill="#fff"/>
<path d="m6992 3457.9v1.3593q-0.6094-0.3125-1.2656-0.4687-0.6563-0.1563-1.3594-0.1563-1.0703 0-1.6094 0.3282-0.5312 0.3281-0.5312 0.9843 0 0.5 0.3828 0.7891 0.3828 0.2813 1.539 0.5391l0.4922 0.1093q1.5313 0.3282 2.1719 0.9297 0.6484 0.5938 0.6484 1.6641 0 1.2187-0.9687 1.9297-0.961 0.7109-2.6485 0.7109-0.7031 0-1.4687-0.1406-0.7578-0.1328-1.6016-0.4063v-1.4843q0.7969 0.414 1.5703 0.625 0.7735 0.2031 1.5313 0.2031 1.0156 0 1.5625-0.3438 0.5469-0.3515 0.5469-0.9843 0-0.586-0.3985-0.8985-0.3906-0.3125-1.7265-0.6015l-0.5-0.1172q-1.336-0.2813-1.9297-0.8594-0.5938-0.5859-0.5938-1.6016 0-1.2343 0.875-1.9062t2.4844-0.6719q0.7969 0 1.5 0.1172t1.2969 0.3516z" fill="#fff"/>
<path class="sb3-looks" d="m6817 3488.4a4 4 0 0 1 4-4h8c2 0 3 1 4 2l4 4c1 1 2 2 4 2h12c2 0 3-1 4-2l4-4c1-1 2-2 4-2h222a4 4 0 0 1 4 4v40a4 4 0 0 1-4 4h-222c-2 0-3 1-4 2l-4 4c-1 1-2 2-4 2h-12c-2 0-3-1-4-2l-4-4c-1-1-2-2-4-2h-8a4 4 0 0 1-4-4z"/>
<path d="m6830.5 3510q-1.7422 0-2.4141 0.3985-0.6719 0.3984-0.6719 1.3593 0 0.7657 0.5 1.2188 0.5078 0.4453 1.375 0.4453 1.1953 0 1.9141-0.8438 0.7266-0.8515 0.7266-2.2578v-0.3203zm2.8672-0.5937v4.9922h-1.4375v-1.3282q-0.4922 0.7969-1.2266 1.1797-0.7344 0.375-1.7969 0.375-1.3437 0-2.1406-0.75-0.7891-0.7578-0.7891-2.0234 0-1.4766 0.9844-2.2266 0.9922-0.75 2.9531-0.75h2.0157v-0.1406q0-0.9922-0.6563-1.5313-0.6484-0.5468-1.8281-0.5468-0.75 0-1.461 0.1797-0.7109 0.1796-1.3671 0.539v-1.3281q0.789-0.3047 1.5312-0.4531 0.7422-0.1563 1.4453-0.1563 1.8985 0 2.836 0.9844t0.9375 2.9844z" fill="#fff"/>
<path d="m6836.3 3505.7h1.4375v8.9062q0 1.6719-0.6406 2.4219-0.6328 0.75-2.0469 0.75h-0.5469v-1.2188h0.3828q0.8203 0 1.1172-0.3828 0.2969-0.375 0.2969-1.5703zm0-3.4063h1.4375v1.8203h-1.4375z" fill="#fff"/>
<path d="m6844.1 3506.7q-1.1562 0-1.8281 0.9062-0.6719 0.8985-0.6719 2.4688t0.6641 2.4765q0.6719 0.8985 1.8359 0.8985 1.1485 0 1.8203-0.9063 0.6719-0.9062 0.6719-2.4687 0-1.5547-0.6719-2.461-0.6718-0.914-1.8203-0.914zm0-1.2188q1.875 0 2.9453 1.2188 1.0704 1.2187 1.0704 3.375 0 2.1484-1.0704 3.375-1.0703 1.2187-2.9453 1.2187-1.8828 0-2.9531-1.2187-1.0625-1.2266-1.0625-3.375 0-2.1563 1.0625-3.375 1.0703-1.2188 2.9531-1.2188z" fill="#fff"/>
<path d="m6850.4 3511v-5.2968h1.4375v5.2421q0 1.2422 0.4844 1.8672 0.4844 0.6172 1.4531 0.6172 1.1641 0 1.836-0.7422 0.6797-0.7422 0.6797-2.0234v-4.9609h1.4375v8.75h-1.4375v-1.3438q-0.5235 0.7969-1.2188 1.1875-0.6875 0.3828-1.6016 0.3828-1.5078 0-2.289-0.9375-0.7813-0.9375-0.7813-2.7422zm3.6172-5.5078z" fill="#fff"/>
<path d="m6862.1 3503.2v2.4844h2.9609v1.1171h-2.9609v4.75q0 1.0704 0.289 1.375 0.2969 0.3047 1.1953 0.3047h1.4766v1.2032h-1.4766q-1.664 0-2.2968-0.6172-0.6328-0.625-0.6328-2.2657v-4.75h-1.0547v-1.1171h1.0547v-2.4844z" fill="#fff"/>
<path d="m6874.4 3509.7v0.7031h-6.6094q0.094 1.4844 0.8907 2.2656 0.8046 0.7735 2.2343 0.7735 0.8282 0 1.6016-0.2032 0.7812-0.2031 1.5469-0.6093v1.3593q-0.7735 0.3282-1.586 0.5-0.8125 0.1719-1.6484 0.1719-2.0938 0-3.3203-1.2187-1.2188-1.2188-1.2188-3.2969 0-2.1484 1.1563-3.4063 1.164-1.2656 3.1328-1.2656 1.7656 0 2.7891 1.1406 1.0312 1.1329 1.0312 3.086zm-1.4375-0.4219q-0.016-1.1797-0.6641-1.8828-0.6406-0.7031-1.7031-0.7031-1.2031 0-1.9297 0.6797-0.7187 0.6796-0.8281 1.914z" fill="#fff"/>
<path d="m6881.9 3507q-0.2422-0.1406-0.5313-0.2031-0.2812-0.07-0.625-0.07-1.2187 0-1.875 0.7968-0.6484 0.7891-0.6484 2.2735v4.6094h-1.4453v-8.75h1.4453v1.3593q0.4531-0.7968 1.1797-1.1797 0.7266-0.3906 1.7656-0.3906 0.1485 0 0.3281 0.024 0.1797 0.016 0.3985 0.055z" fill="#fff"/>
<path class="sb3-looks sb3-input sb3-input-number" d="m6902.9 3492.4h8c8.864 0 16 7.136 16 16s-7.136 16-16 16h-8c-8.864 0-16-7.136-16-16s7.136-16 16-16z" fill="#fff" stroke="#774dcb"/>
<path d="m6900 3513.1h5.5078v1.3282h-7.4062v-1.3282q0.8984-0.9297 2.4453-2.4922 1.5547-1.5703 1.9531-2.0234 0.7578-0.8516 1.0547-1.4375 0.3047-0.5937 0.3047-1.1641 0-0.9296-0.6563-1.5156-0.6484-0.5859-1.6953-0.5859-0.7422 0-1.5703 0.2578-0.8203 0.2578-1.7578 0.7812v-1.5937q0.9531-0.3828 1.7813-0.5781 0.8281-0.1953 1.5156-0.1953 1.8125 0 2.8906 0.9062 1.0781 0.9063 1.0781 2.4219 0 0.7187-0.2734 1.3672-0.2656 0.6406-0.9766 1.5156-0.1953 0.2266-1.2422 1.3125-1.0468 1.0781-2.9531 3.0234z" fill="#575e75"/>
<path d="m6908.8 3502.8h6.1953v1.3281h-4.75v2.8594q0.3437-0.1172 0.6875-0.1719 0.3437-0.062 0.6875-0.062 1.9531 0 3.0937 1.0703t1.1406 2.8985q0 1.8828-1.1718 2.9297-1.1719 1.039-3.3047 1.039-0.7344 0-1.5-0.125-0.7578-0.125-1.5703-0.375v-1.5859q0.7031 0.3828 1.4531 0.5703t1.5859 0.1875q1.3516 0 2.1407-0.7109 0.789-0.711 0.789-1.9297 0-1.2188-0.789-1.9297-0.7891-0.711-2.1407-0.711-0.6328 0-1.2656 0.1407-0.625 0.1406-1.2812 0.4375z" fill="#575e75"/>
<path d="m6936.5 3510q-1.7422 0-2.4141 0.3985-0.6719 0.3984-0.6719 1.3593 0 0.7657 0.5 1.2188 0.5078 0.4453 1.375 0.4453 1.1953 0 1.9141-0.8438 0.7266-0.8515 0.7266-2.2578v-0.3203zm2.8672-0.5937v4.9922h-1.4375v-1.3282q-0.4922 0.7969-1.2266 1.1797-0.7344 0.375-1.7969 0.375-1.3437 0-2.1406-0.75-0.7891-0.7578-0.7891-2.0234 0-1.4766 0.9844-2.2266 0.9922-0.75 2.9531-0.75h2.0157v-0.1406q0-0.9922-0.6563-1.5313-0.6484-0.5468-1.8281-0.5468-0.75 0-1.461 0.1797-0.7109 0.1796-1.3671 0.539v-1.3281q0.789-0.3047 1.5312-0.4531 0.7422-0.1563 1.4453-0.1563 1.8985 0 2.836 0.9844t0.9375 2.9844zm-4.8438-7.8047 2.2031 2.9219h-1.1953l-2.5469-2.9219z" fill="#fff"/>
<path d="m6944 3502.3h1.4375v12.156h-1.4375z" fill="#fff"/>
<path d="m6949.8 3502.8v4.3359h-1.3282v-4.3359z" fill="#fff"/>
<path d="m6960.3 3509.7v0.7031h-6.6094q0.094 1.4844 0.8907 2.2656 0.8046 0.7735 2.2343 0.7735 0.8282 0 1.6016-0.2032 0.7812-0.2031 1.5469-0.6093v1.3593q-0.7735 0.3282-1.586 0.5-0.8125 0.1719-1.6484 0.1719-2.0938 0-3.3203-1.2187-1.2188-1.2188-1.2188-3.2969 0-2.1484 1.1563-3.4063 1.164-1.2656 3.1328-1.2656 1.7656 0 2.7891 1.1406 1.0312 1.1329 1.0312 3.086zm-1.4375-0.4219q-0.016-1.1797-0.6641-1.8828-0.6406-0.7031-1.7031-0.7031-1.2031 0-1.9297 0.6797-0.7187 0.6796-0.8281 1.914z" fill="#fff"/>
<path d="m6972.5 3502.3v1.1953h-1.375q-0.7734 0-1.0781 0.3125-0.2969 0.3125-0.2969 1.125v0.7735h2.3672v1.1171h-2.3672v7.6329h-1.4453v-7.6329h-3.9453v7.6329h-1.4453v-7.6329h-1.375v-1.1171h1.375v-0.6094q0-1.461 0.6796-2.125 0.6797-0.6719 2.1563-0.6719h1.3594v1.1953h-1.375q-0.7735 0-1.0782 0.3125-0.2968 0.3125-0.2968 1.125v0.7735h3.9453v-0.6094q0-1.461 0.6797-2.125 0.6797-0.6719 2.1562-0.6719z" fill="#fff"/>
<path d="m6981.2 3509.7v0.7031h-6.6094q0.094 1.4844 0.8906 2.2656 0.8047 0.7735 2.2344 0.7735 0.8281 0 1.6016-0.2032 0.7812-0.2031 1.5469-0.6093v1.3593q-0.7735 0.3282-1.586 0.5-0.8125 0.1719-1.6484 0.1719-2.0938 0-3.3203-1.2187-1.2188-1.2188-1.2188-3.2969 0-2.1484 1.1563-3.4063 1.164-1.2656 3.1328-1.2656 1.7656 0 2.789 1.1406 1.0313 1.1329 1.0313 3.086zm-1.4375-0.4219q-0.016-1.1797-0.6641-1.8828-0.6406-0.7031-1.7031-0.7031-1.2031 0-1.9297 0.6797-0.7187 0.6796-0.8281 1.914z" fill="#fff"/>
<path d="m6985 3503.2v2.4844h2.961v1.1171h-2.961v4.75q0 1.0704 0.2891 1.375 0.2969 0.3047 1.1953 0.3047h1.4766v1.2032h-1.4766q-1.664 0-2.2969-0.6172-0.6328-0.625-0.6328-2.2657v-4.75h-1.0547v-1.1171h1.0547v-2.4844z" fill="#fff"/>
<path class="sb3-looks sb3-input sb3-input-dropdown" d="m6996.2 3492.4h70.237c1.8098 0 3.2669 1.7893 3.2669 4.0119v24.071c0 2.2225-1.4571 4.0118-3.2669 4.0118h-70.237c-1.8099 0-3.2669-1.7893-3.2669-4.0118v-24.071c0-2.2226 1.457-4.0119 3.2669-4.0119z" fill="#96f" stroke="#774dcb" stroke-width=".90506"/>
<path d="m7008.8 3506v1.3437q-0.6094-0.3359-1.2266-0.5-0.6094-0.1718-1.2344-0.1718-1.3984 0-2.1718 0.8906-0.7735 0.8828-0.7735 2.4844 0 1.6015 0.7735 2.4922 0.7734 0.8828 2.1718 0.8828 0.625 0 1.2344-0.1641 0.6172-0.1719 1.2266-0.5078v1.3281q-0.6016 0.2813-1.25 0.4219-0.6406 0.1406-1.3672 0.1406-1.9766 0-3.1406-1.2422-1.1641-1.2422-1.1641-3.3515 0-2.1407 1.1719-3.3672 1.1797-1.2266 3.2265-1.2266 0.6641 0 1.2969 0.1406 0.6328 0.1329 1.2266 0.4063z" fill="#fff"/>
<path d="m7014.7 3506.7q-1.1562 0-1.8281 0.9062-0.6719 0.8985-0.6719 2.4688t0.6641 2.4765q0.6718 0.8985 1.8359 0.8985 1.1484 0 1.8203-0.9063 0.6719-0.9062 0.6719-2.4687 0-1.5547-0.6719-2.461-0.6719-0.914-1.8203-0.914zm0-1.2188q1.875 0 2.9453 1.2188 1.0703 1.2187 1.0703 3.375 0 2.1484-1.0703 3.375-1.0703 1.2187-2.9453 1.2187-1.8828 0-2.9531-1.2187-1.0625-1.2266-1.0625-3.375 0-2.1563 1.0625-3.375 1.0703-1.2188 2.9531-1.2188z" fill="#fff"/>
<path d="m7021 3511v-5.2968h1.4375v5.2421q0 1.2422 0.4844 1.8672 0.4844 0.6172 1.4531 0.6172 1.1641 0 1.8359-0.7422 0.6797-0.7422 0.6797-2.0234v-4.9609h1.4375v8.75h-1.4375v-1.3438q-0.5234 0.7969-1.2187 1.1875-0.6875 0.3828-1.6016 0.3828-1.5078 0-2.289-0.9375-0.7813-0.9375-0.7813-2.7422zm3.6172-5.5078z" fill="#fff"/>
<path d="m7031.3 3502.3h1.4375v12.156h-1.4375z" fill="#fff"/>
<path d="m7043.2 3509.7v0.7031h-6.6094q0.094 1.4844 0.8906 2.2656 0.8047 0.7735 2.2344 0.7735 0.8281 0 1.6015-0.2032 0.7813-0.2031 1.5469-0.6093v1.3593q-0.7734 0.3282-1.5859 0.5-0.8125 0.1719-1.6485 0.1719-2.0937 0-3.3203-1.2187-1.2187-1.2188-1.2187-3.2969 0-2.1484 1.1562-3.4063 1.1641-1.2656 3.1328-1.2656 1.7657 0 2.7891 1.1406 1.0313 1.1329 1.0313 3.086zm-1.4375-0.4219q-0.016-1.1797-0.6641-1.8828-0.6406-0.7031-1.7031-0.7031-1.2032 0-1.9297 0.6797-0.7188 0.6796-0.8281 1.914z" fill="#fff"/>
<path d="m7045.4 3511v-5.2968h1.4375v5.2421q0 1.2422 0.4844 1.8672 0.4843 0.6172 1.4531 0.6172 1.1641 0 1.8359-0.7422 0.6797-0.7422 0.6797-2.0234v-4.9609h1.4375v8.75h-1.4375v-1.3438q-0.5234 0.7969-1.2187 1.1875-0.6875 0.3828-1.6016 0.3828-1.5078 0-2.2891-0.9375-0.7812-0.9375-0.7812-2.7422zm3.6172-5.5078z" fill="#fff"/>
<path d="m7060.8 3507q-0.2422-0.1406-0.5313-0.2031-0.2812-0.07-0.625-0.07-1.2187 0-1.875 0.7968-0.6484 0.7891-0.6484 2.2735v4.6094h-1.4453v-8.75h1.4453v1.3593q0.4531-0.7968 1.1797-1.1797 0.7265-0.3906 1.7656-0.3906 0.1484 0 0.3281 0.024 0.1797 0.016 0.3985 0.055z" fill="#fff"/>
<path class="sb3-sound" d="m6817 3536.4a4 4 0 0 1 4-4h8c2 0 3 1 4 2l4 4c1 1 2 2 4 2h12c2 0 3-1 4-2l4-4c1-1 2-2 4-2h245a4 4 0 0 1 4 4v40a4 4 0 0 1-4 4h-245c-2 0-3 1-4 2l-4 4c-1 1-2 2-4 2h-12c-2 0-3-1-4-2l-4-4c-1-1-2-2-4-2h-8a4 4 0 0 1-4-4z"/>
<path d="m6826.5 3553.7h1.4375v8.9062q0 1.6719-0.6406 2.4219-0.6328 0.75-2.0469 0.75h-0.5469v-1.2188h0.3828q0.8204 0 1.1172-0.3828 0.2969-0.375 0.2969-1.5703zm0-3.4063h1.4375v1.8203h-1.4375z" fill="#fff"/>
<path d="m6834.3 3554.7q-1.1562 0-1.8281 0.9062-0.6719 0.8985-0.6719 2.4688t0.6641 2.4765q0.6719 0.8985 1.8359 0.8985 1.1485 0 1.8204-0.9063 0.6718-0.9062 0.6718-2.4687 0-1.5547-0.6718-2.461-0.6719-0.914-1.8204-0.914zm0-1.2188q1.875 0 2.9454 1.2188 1.0703 1.2187 1.0703 3.375 0 2.1484-1.0703 3.375-1.0704 1.2187-2.9454 1.2187-1.8828 0-2.9531-1.2187-1.0625-1.2266-1.0625-3.375 0-2.1563 1.0625-3.375 1.0703-1.2188 2.9531-1.2188z" fill="#fff"/>
<path d="m6840.6 3559v-5.2968h1.4375v5.2421q0 1.2422 0.4844 1.8672 0.4844 0.6172 1.4531 0.6172 1.1641 0 1.836-0.7422 0.6797-0.7422 0.6797-2.0234v-4.9609h1.4375v8.75h-1.4375v-1.3438q-0.5235 0.7969-1.2188 1.1875-0.6875 0.3828-1.6015 0.3828-1.5079 0-2.2891-0.9375-0.7813-0.9375-0.7813-2.7422zm3.6172-5.5078z" fill="#fff"/>
<path d="m6858.4 3557.7v0.7031h-6.6094q0.094 1.4844 0.8906 2.2656 0.8047 0.7735 2.2344 0.7735 0.8281 0 1.6016-0.2032 0.7812-0.2031 1.5468-0.6093v1.3593q-0.7734 0.3282-1.5859 0.5-0.8125 0.1719-1.6484 0.1719-2.0938 0-3.3203-1.2187-1.2188-1.2188-1.2188-3.2969 0-2.1484 1.1563-3.4063 1.164-1.2656 3.1328-1.2656 1.7656 0 2.789 1.1406 1.0313 1.1329 1.0313 3.086zm-1.4375-0.4219q-0.016-1.1797-0.6641-1.8828-0.6406-0.7031-1.7031-0.7031-1.2031 0-1.9297 0.6797-0.7187 0.6796-0.8281 1.914z" fill="#fff"/>
<path d="m6865.8 3555q-0.2422-0.1406-0.5313-0.2031-0.2812-0.07-0.625-0.07-1.2187 0-1.875 0.7968-0.6484 0.7891-0.6484 2.2735v4.6094h-1.4453v-8.75h1.4453v1.3593q0.4531-0.7968 1.1797-1.1797 0.7265-0.3906 1.7656-0.3906 0.1484 0 0.3281 0.024 0.1797 0.016 0.3985 0.055z" fill="#fff"/>
<path d="m6872.3 3550.3h1.4375v12.156h-1.4375z" fill="#fff"/>
<path d="m6884.2 3557.7v0.7031h-6.6094q0.094 1.4844 0.8907 2.2656 0.8047 0.7735 2.2343 0.7735 0.8282 0 1.6016-0.2032 0.7813-0.2031 1.5469-0.6093v1.3593q-0.7735 0.3282-1.586 0.5-0.8125 0.1719-1.6484 0.1719-2.0937 0-3.3203-1.2187-1.2188-1.2188-1.2188-3.2969 0-2.1484 1.1563-3.4063 1.1641-1.2656 3.1328-1.2656 1.7656 0 2.7891 1.1406 1.0312 1.1329 1.0312 3.086zm-1.4375-0.4219q-0.016-1.1797-0.664-1.8828-0.6407-0.7031-1.7032-0.7031-1.2031 0-1.9297 0.6797-0.7187 0.6796-0.8281 1.914z" fill="#fff"/>
<path d="m6897 3553.9v1.3593q-0.6093-0.3125-1.2656-0.4687-0.6562-0.1563-1.3594-0.1563-1.0703 0-1.6093 0.3282-0.5313 0.3281-0.5313 0.9843 0 0.5 0.3828 0.7891 0.3828 0.2813 1.5391 0.5391l0.4922 0.1093q1.5312 0.3282 2.1718 0.9297 0.6485 0.5938 0.6485 1.6641 0 1.2187-0.9688 1.9297-0.9609 0.7109-2.6484 0.7109-0.7031 0-1.4688-0.1406-0.7578-0.1328-1.6015-0.4063v-1.4843q0.7969 0.414 1.5703 0.625 0.7734 0.2031 1.5312 0.2031 1.0157 0 1.5625-0.3438 0.5469-0.3515 0.5469-0.9843 0-0.586-0.3984-0.8985-0.3906-0.3125-1.7266-0.6015l-0.5-0.1172q-1.3359-0.2813-1.9297-0.8594-0.5937-0.5859-0.5937-1.6016 0-1.2343 0.875-1.9062t2.4844-0.6719q0.7968 0 1.5 0.1172 0.7031 0.1172 1.2968 0.3516z" fill="#fff"/>
<path d="m6903.1 3554.7q-1.1563 0-1.8282 0.9062-0.6718 0.8985-0.6718 2.4688t0.664 2.4765q0.6719 0.8985 1.836 0.8985 1.1484 0 1.8203-0.9063 0.6719-0.9062 0.6719-2.4687 0-1.5547-0.6719-2.461-0.6719-0.914-1.8203-0.914zm0-1.2188q1.875 0 2.9453 1.2188 1.0703 1.2187 1.0703 3.375 0 2.1484-1.0703 3.375-1.0703 1.2187-2.9453 1.2187-1.8828 0-2.9532-1.2187-1.0625-1.2266-1.0625-3.375 0-2.1563 1.0625-3.375 1.0704-1.2188 2.9532-1.2188z" fill="#fff"/>
<path d="m6916.8 3557.1v5.2813h-1.4375v-5.2344q0-1.2422-0.4843-1.8594-0.4844-0.6172-1.4532-0.6172-1.164 0-1.8359 0.7422t-0.6719 2.0234v4.9454h-1.4453v-8.75h1.4453v1.3593q0.5157-0.789 1.211-1.1797 0.7031-0.3906 1.6172-0.3906 1.5078 0 2.2812 0.9375 0.7734 0.9297 0.7734 2.7422z" fill="#fff"/>
<path class="sb3-sound sb3-input sb3-input-number-dropdown sb3-sound-alt" d="m6936.6 3540.4h43.188c7.0891 0 12.796 7.1592 12.796 16.052s-5.7072 16.052-12.796 16.052h-43.188c-7.0892 0-12.796-7.1592-12.796-16.052s5.7071-16.052 12.796-16.052z" fill="#c94fc9" stroke="#bd42bd" stroke-width=".89575"/>
<path d="m6935.7 3550.8h2.3516l2.9766 7.9375 2.9921-7.9375h2.3516v11.664h-1.5391v-10.242l-3.0078 8h-1.5859l-3.0078-8v10.242h-1.5313z" fill="#fff"/>
<path d="m6949.4 3553.7h1.4375v8.75h-1.4375zm0-3.4063h1.4375v1.8203h-1.4375z" fill="#fff"/>
<path d="m6957.9 3558q-1.7422 0-2.4141 0.3985-0.6718 0.3984-0.6718 1.3593 0 0.7657 0.5 1.2188 0.5078 0.4453 1.375 0.4453 1.1953 0 1.914-0.8438 0.7266-0.8515 0.7266-2.2578v-0.3203zm2.8672-0.5937v4.9922h-1.4375v-1.3282q-0.4922 0.7969-1.2266 1.1797-0.7344 0.375-1.7969 0.375-1.3437 0-2.1406-0.75-0.789-0.7578-0.789-2.0234 0-1.4766 0.9843-2.2266 0.9922-0.75 2.9532-0.75h2.0156v-0.1406q0-0.9922-0.6563-1.5313-0.6484-0.5468-1.8281-0.5468-0.75 0-1.4609 0.1797-0.711 0.1796-1.3672 0.539v-1.3281q0.789-0.3047 1.5312-0.4531 0.7422-0.1563 1.4453-0.1563 1.8985 0 2.836 0.9844t0.9375 2.9844z" fill="#fff"/>
<path d="m6967.1 3554.7q-1.1562 0-1.8281 0.9062-0.6719 0.8985-0.6719 2.4688t0.6641 2.4765q0.6719 0.8985 1.8359 0.8985 1.1485 0 1.8204-0.9063 0.6718-0.9062 0.6718-2.4687 0-1.5547-0.6718-2.461-0.6719-0.914-1.8204-0.914zm0-1.2188q1.875 0 2.9454 1.2188 1.0703 1.2187 1.0703 3.375 0 2.1484-1.0703 3.375-1.0704 1.2187-2.9454 1.2187-1.8828 0-2.9531-1.2187-1.0625-1.2266-1.0625-3.375 0-2.1563 1.0625-3.375 1.0703-1.2188 2.9531-1.2188z" fill="#fff"/>
<path d="m6973.3 3559v-5.2968h1.4375v5.2421q0 1.2422 0.4844 1.8672 0.4844 0.6172 1.4531 0.6172 1.1641 0 1.836-0.7422 0.6797-0.7422 0.6797-2.0234v-4.9609h1.4375v8.75h-1.4375v-1.3438q-0.5235 0.7969-1.2188 1.1875-0.6875 0.3828-1.6015 0.3828-1.5079 0-2.2891-0.9375-0.7813-0.9375-0.7813-2.7422zm3.6172-5.5078z" fill="#fff"/>
<path d="m7001.3 3553.7h1.4375v8.9062q0 1.6719-0.6406 2.4219-0.6328 0.75-2.0469 0.75h-0.5469v-1.2188h0.3829q0.8203 0 1.1171-0.3828 0.2969-0.375 0.2969-1.5703zm0-3.4063h1.4375v1.8203h-1.4375z" fill="#fff"/>
<path d="m7005.6 3559v-5.2968h1.4375v5.2421q0 1.2422 0.4844 1.8672 0.4843 0.6172 1.4531 0.6172 1.1641 0 1.8359-0.7422 0.6797-0.7422 0.6797-2.0234v-4.9609h1.4375v8.75h-1.4375v-1.3438q-0.5234 0.7969-1.2187 1.1875-0.6875 0.3828-1.6016 0.3828-1.5078 0-2.2891-0.9375-0.7812-0.9375-0.7812-2.7422zm3.6172-5.5078z" fill="#fff"/>
<path d="m7021.5 3553.9v1.3593q-0.6094-0.3125-1.2656-0.4687-0.6563-0.1563-1.3594-0.1563-1.0703 0-1.6094 0.3282-0.5312 0.3281-0.5312 0.9843 0 0.5 0.3828 0.7891 0.3828 0.2813 1.539 0.5391l0.4922 0.1093q1.5313 0.3282 2.1719 0.9297 0.6484 0.5938 0.6484 1.6641 0 1.2187-0.9687 1.9297-0.961 0.7109-2.6485 0.7109-0.7031 0-1.4687-0.1406-0.7578-0.1328-1.6016-0.4063v-1.4843q0.7969 0.414 1.5703 0.625 0.7735 0.2031 1.5313 0.2031 1.0156 0 1.5625-0.3438 0.5469-0.3515 0.5469-0.9843 0-0.586-0.3985-0.8985-0.3906-0.3125-1.7265-0.6015l-0.5-0.1172q-1.336-0.2813-1.9297-0.8594-0.5938-0.5859-0.5938-1.6016 0-1.2343 0.875-1.9062t2.4844-0.6719q0.7969 0 1.5 0.1172t1.2969 0.3516z" fill="#fff"/>
<path d="m7025.1 3558.1q0 1.5859 0.6484 2.4922 0.6563 0.8984 1.7969 0.8984t1.7969-0.8984q0.6562-0.9063 0.6562-2.4922 0-1.586-0.6562-2.4844-0.6563-0.9063-1.7969-0.9063t-1.7969 0.9063q-0.6484 0.8984-0.6484 2.4844zm4.8984 3.0547q-0.4531 0.7812-1.1484 1.164-0.6875 0.375-1.6563 0.375-1.5859 0-2.5859-1.2656-0.9922-1.2656-0.9922-3.3281t0.9922-3.3282q1-1.2656 2.5859-1.2656 0.9688 0 1.6563 0.3828 0.6953 0.375 1.1484 1.1563v-1.3281h1.4375v12.078h-1.4375z" fill="#fff"/>
<path d="m7034.3 3559v-5.2968h1.4375v5.2421q0 1.2422 0.4844 1.8672 0.4844 0.6172 1.4531 0.6172 1.1641 0 1.8359-0.7422 0.6797-0.7422 0.6797-2.0234v-4.9609h1.4375v8.75h-1.4375v-1.3438q-0.5234 0.7969-1.2187 1.1875-0.6875 0.3828-1.6016 0.3828-1.5078 0-2.289-0.9375-0.7813-0.9375-0.7813-2.7422zm3.6172-5.5078z" fill="#fff"/>
<path d="m7045.9 3550.8v4.3359h-1.3281v-4.3359z" fill="#fff"/>
<path d="m7052.9 3558q-1.7422 0-2.4141 0.3985-0.6719 0.3984-0.6719 1.3593 0 0.7657 0.5 1.2188 0.5078 0.4453 1.375 0.4453 1.1953 0 1.9141-0.8438 0.7266-0.8515 0.7266-2.2578v-0.3203zm2.8672-0.5937v4.9922h-1.4375v-1.3282q-0.4922 0.7969-1.2266 1.1797-0.7344 0.375-1.7969 0.375-1.3437 0-2.1406-0.75-0.7891-0.7578-0.7891-2.0234 0-1.4766 0.9844-2.2266 0.9922-0.75 2.9531-0.75h2.0157v-0.1406q0-0.9922-0.6563-1.5313-0.6484-0.5468-1.8281-0.5468-0.75 0-1.461 0.1797-0.7109 0.1796-1.3671 0.539v-1.3281q0.789-0.3047 1.5312-0.4531 0.7422-0.1563 1.4453-0.1563 1.8985 0 2.836 0.9844t0.9375 2.9844z" fill="#fff"/>
<path d="m7058.6 3559v-5.2968h1.4375v5.2421q0 1.2422 0.4843 1.8672 0.4844 0.6172 1.4532 0.6172 1.164 0 1.8359-0.7422 0.6797-0.7422 0.6797-2.0234v-4.9609h1.4375v8.75h-1.4375v-1.3438q-0.5235 0.7969-1.2188 1.1875-0.6875 0.3828-1.6015 0.3828-1.5078 0-2.2891-0.9375-0.7812-0.9375-0.7812-2.7422zm3.6171-5.5078z" fill="#fff"/>
<path d="m7078.8 3558.1q0-1.586-0.6563-2.4844-0.6484-0.9063-1.789-0.9063-1.1407 0-1.7969 0.9063-0.6484 0.8984-0.6484 2.4844 0 1.5859 0.6484 2.4922 0.6562 0.8984 1.7969 0.8984 1.1406 0 1.789-0.8984 0.6563-0.9063 0.6563-2.4922zm-4.8906-3.0547q0.4531-0.7813 1.1406-1.1563 0.6953-0.3828 1.6562-0.3828 1.5938 0 2.586 1.2656 1 1.2657 1 3.3282t-1 3.3281q-0.9922 1.2656-2.586 1.2656-0.9609 0-1.6562-0.375-0.6875-0.3828-1.1406-1.164v1.3125h-1.4454v-12.156h1.4454z" fill="#fff"/>
<path d="m7086.1 3554.7q-1.1562 0-1.8281 0.9062-0.6719 0.8985-0.6719 2.4688t0.6641 2.4765q0.6718 0.8985 1.8359 0.8985 1.1484 0 1.8203-0.9063 0.6719-0.9062 0.6719-2.4687 0-1.5547-0.6719-2.461-0.6719-0.914-1.8203-0.914zm0-1.2188q1.875 0 2.9453 1.2188 1.0703 1.2187 1.0703 3.375 0 2.1484-1.0703 3.375-1.0703 1.2187-2.9453 1.2187-1.8828 0-2.9531-1.2187-1.0625-1.2266-1.0625-3.375 0-2.1563 1.0625-3.375 1.0703-1.2188 2.9531-1.2188z" fill="#fff"/>
<path d="m7092.3 3559v-5.2968h1.4375v5.2421q0 1.2422 0.4844 1.8672 0.4844 0.6172 1.4531 0.6172 1.1641 0 1.8359-0.7422 0.6797-0.7422 0.6797-2.0234v-4.9609h1.4375v8.75h-1.4375v-1.3438q-0.5234 0.7969-1.2187 1.1875-0.6875 0.3828-1.6016 0.3828-1.5078 0-2.289-0.9375-0.7813-0.9375-0.7813-2.7422zm3.6172-5.5078z" fill="#fff"/>
<path d="m7104 3551.2v2.4844h2.961v1.1171h-2.961v4.75q0 1.0704 0.2891 1.375 0.2969 0.3047 1.1953 0.3047h1.4766v1.2032h-1.4766q-1.664 0-2.2969-0.6172-0.6328-0.625-0.6328-2.2657v-4.75h-1.0547v-1.1171h1.0547v-2.4844z" fill="#fff"/>
</g>
<rect x="7584" y="2988.2" width="450" height="450" ry="0" fill="none" stroke-dasharray="46.3547, 46.3547" stroke-linecap="round" stroke-width="15.452" style="paint-order:fill markers stroke"/>
<circle cx="7894.5" cy="3376.8" r="3.8891" fill="#fff" stroke-dasharray="17.007, 17.007" stroke-linecap="round" stroke-width="5.669" style="paint-order:fill markers stroke"/>
<circle cx="7858" cy="3347.6" r="2.6517" fill="#fff" stroke-dasharray="11.5957, 11.5957" stroke-linecap="round" stroke-width="3.8652" style="paint-order:fill markers stroke"/>
<circle cx="7748.4" cy="3378.9" r="3.8891" fill="#fff" stroke-dasharray="17.007, 17.007" stroke-linecap="round" stroke-width="5.669" style="paint-order:fill markers stroke"/>
</g>
</g>
</g>
</svg>
