<?xml version="1.0" encoding="UTF-8" standalone="no"?>
<svg
   class="svg-inline--fa fa-twitter fa-w-16"
   aria-hidden="true"
   data-icon="twitter"
   data-prefix="fab"
   focusable="false"
   role="img"
   version="1.1"
   viewBox="0 0 16 16"
   id="svg4"
   sodipodi:docname="icon-scratch.svg"
   inkscape:version="1.1 (c68e22c387, 2021-05-23)"
   xmlns:inkscape="http://www.inkscape.org/namespaces/inkscape"
   xmlns:sodipodi="http://sodipodi.sourceforge.net/DTD/sodipodi-0.dtd"
   xmlns="http://www.w3.org/2000/svg"
   xmlns:svg="http://www.w3.org/2000/svg">
  <defs
     id="defs8" />
  <sodipodi:namedview
     id="namedview6"
     pagecolor="#ffffff"
     bordercolor="#666666"
     borderopacity="1.0"
     inkscape:pageshadow="2"
     inkscape:pageopacity="0.0"
     inkscape:pagecheckerboard="0"
     showgrid="false"
     inkscape:zoom="37.918601"
     inkscape:cx="7.977615"
     inkscape:cy="7.9512427"
     inkscape:window-width="1920"
     inkscape:window-height="1017"
     inkscape:window-x="3832"
     inkscape:window-y="-8"
     inkscape:window-maximized="1"
     inkscape:current-layer="svg4" />
  <path
     id="path2"
     style="fill:#6c757d;fill-opacity:1;stroke-width:0.799988"
     class="st0"
     d="M 10.353516 0.00390625 C 10.295773 0.0050170032 10.237822 0.0091862488 10.179688 0.015625 C 9.5827083 0.05917237 9.0209549 0.38395185 8.6464844 0.84570312 C 7.3236188 0.5130163 5.7331088 0.72560841 4.8691406 1.8867188 C 3.9006723 3.2008118 3.8606501 4.9417979 3.9433594 6.5078125 C 3.9913852 6.9373448 4.0838045 7.3633539 4.2441406 7.765625 C 3.4657012 8.3401173 3.3523201 9.3514279 3.4003906 10.246094 C 3.3238816 11.651467 3.107474 13.102849 3.4375 14.486328 C 3.851841 15.80345 5.6019812 16.468017 6.7441406 15.636719 C 7.1459956 15.513354 7.259971 14.83045 7.6699219 14.929688 C 10.452333 15.550389 13.454009 13.050403 13.214844 10.179688 C 13.155365 9.1605755 12.751383 8.1459003 12.019531 7.4238281 C 12.611765 6.5636952 12.347856 5.4699926 12.482422 4.4902344 C 12.452678 3.4415373 12.802163 2.3369092 12.404297 1.3300781 C 12.030334 0.556514 11.219653 -0.012755048 10.353516 0.00390625 z M 10.365234 1.5410156 C 10.67999 1.5410156 10.994141 1.8551745 10.994141 2.1699219 C 10.994141 2.2748804 10.785156 6.2617188 10.785156 6.2617188 C 10.680238 6.5764662 10.365528 6.8920279 10.050781 6.7871094 C 9.7360335 6.6821909 9.5253906 6.4715476 9.5253906 6.2617188 L 9.5253906 5.8417969 C 9.4204801 5.5270254 9.4207744 5.2126347 9.2109375 4.7929688 C 9.0010845 4.1634899 8.5809307 3.8485008 8.3710938 3.6386719 C 8.1612568 3.4288429 7.9520245 3.3242188 7.7421875 3.3242188 C 7.1127087 3.3242187 7.0086571 3.6394158 6.7988281 4.8984375 L 6.7988281 5.1074219 C 6.5889912 6.5762966 7.0077742 7.1001596 7.7421875 7.2050781 C 9.0012092 7.4149151 11.625 7.8360619 11.625 10.458984 C 11.625 11.193453 11.203722 12.032057 10.574219 12.556641 C 9.8398295 13.186136 8.8973512 13.500853 7.953125 13.291016 C 7.2187356 13.186098 6.5876347 12.871389 6.1679688 12.556641 L 6.1679688 13.710938 C 6.1679687 14.025685 5.85381 14.339844 5.5390625 14.339844 C 5.2243151 14.339844 4.9101562 14.025685 4.9101562 13.710938 C 4.9101562 13.60606 4.8052377 12.661366 4.9101562 11.402344 C 5.0150748 10.667955 5.0136719 9.4082031 5.0136719 9.4082031 C 5.0136719 9.0934477 5.3297839 8.7792969 5.6445312 8.7792969 C 5.9592787 8.7792969 6.2734375 9.0934477 6.2734375 9.4082031 L 6.2734375 9.6191406 C 6.2734375 9.933936 6.3794565 10.457287 6.484375 10.876953 C 6.694212 11.296634 7.3233741 11.611879 7.5332031 11.716797 C 7.743032 11.716797 7.8468117 11.822266 8.0566406 11.822266 C 8.6861515 11.927184 9.316663 11.82201 9.7363281 11.402344 C 10.155986 11.087629 10.365234 10.667713 10.365234 10.248047 C 10.365234 9.1988456 9.2118987 8.8850599 7.5332031 8.5703125 C 5.9594579 8.255597 5.3292336 6.9953641 5.5390625 5.0019531 L 5.5390625 4.7929688 C 5.643941 3.7438641 5.8542452 1.9606432 7.8476562 2.2753906 C 8.5821256 2.2753906 9.2117446 2.7996344 9.7363281 3.3242188 L 9.7363281 2.1699219 C 9.7363281 1.8551665 10.050487 1.5410156 10.365234 1.5410156 z " />
</svg>
