<?xml version="1.0" encoding="UTF-8" standalone="no"?>
<svg
   id="Layer_1"
   data-name="Layer 1"
   viewBox="0 0 97.000008 57"
   version="1.1"
   sodipodi:docname="nav-home.svg"
   width="97"
   height="57"
   inkscape:version="1.1 (c68e22c387, 2021-05-23)"
   xmlns:inkscape="http://www.inkscape.org/namespaces/inkscape"
   xmlns:sodipodi="http://sodipodi.sourceforge.net/DTD/sodipodi-0.dtd"
   xmlns="http://www.w3.org/2000/svg"
   xmlns:svg="http://www.w3.org/2000/svg"
   xmlns:rdf="http://www.w3.org/1999/02/22-rdf-syntax-ns#"
   xmlns:cc="http://creativecommons.org/ns#"
   xmlns:dc="http://purl.org/dc/elements/1.1/">
  <sodipodi:namedview
     id="namedview13"
     pagecolor="#ffffff"
     bordercolor="#666666"
     borderopacity="1.0"
     inkscape:pageshadow="2"
     inkscape:pageopacity="0.0"
     inkscape:pagecheckerboard="0"
     showgrid="false"
     inkscape:zoom="6.1285714"
     inkscape:cx="47.400933"
     inkscape:cy="36.142191"
     inkscape:window-width="1920"
     inkscape:window-height="1017"
     inkscape:window-x="3832"
     inkscape:window-y="-8"
     inkscape:window-maximized="1"
     inkscape:current-layer="Layer_1" />
  <defs
     id="defs4">
    <style
       id="style2">.cls-1,.cls-2{fill:#4cbf56;stroke:#45993d;stroke-linecap:round;stroke-linejoin:round;}.cls-2{stroke-width:1.5px;}</style>
  </defs>
  <title
     id="title6">icon--green-flag</title>
  <metadata
     id="metadata830">
    <rdf:RDF>
      <cc:Work
         rdf:about="">
        <dc:title>icon--green-flag</dc:title>
      </cc:Work>
    </rdf:RDF>
  </metadata>
  <path
     class="sb3-motion"
     d="m 0.5,4.5 c 0,-2.2091 1.7909,-4 4,-4 h 8 c 2,0 3,1 4,2 l 4,4 c 1,1 2,2 4,2 h 12 c 2,0 3,-1 4,-2 l 4,-4 c 1,-1 2,-2 4,-2 h 44 c 2.2091,0 4,1.7909 4,4 v 40 c 0,2.2091 -1.7909,4 -4,4 h -44 c -2,0 -3,1 -4,2 l -4,4 c -1,1 -2,2 -4,2 h -12 c -2,0 -3,-1 -4,-2 l -4,-4 c -1,-1 -2,-2 -4,-2 h -8 c -2.2091,0 -4,-1.7909 -4,-4 z"
     id="path9965"
     sodipodi:nodetypes="sssssssssssssssssssssssss"
     style="font-size:40px;line-height:1.25;letter-spacing:0px;word-spacing:0px;fill:#9966ff;fill-opacity:1;stroke:#774dcb;stroke-opacity:1" />
  <path
     fill="currentColor"
     d="M 68.2985,9.4769092 52.4632,22.51921 v 14.0763 c 0,0.759 0.6152,1.3743 1.3742,1.3743 l 9.6247,-0.025 c 0.7563,0 1.3674,-0.6179 1.3674,-1.3742 v -8.2205 c 0,-0.7589 0.6153,-1.3742 1.3742,-1.3742 h 5.4969 c 0.759,0 1.3742,0.6153 1.3742,1.3742 v 8.2145 c 0,0.7606 0.6136,1.3785 1.3742,1.3785 l 9.6214,0.027 c 0.7589,0 1.3741,-0.6153 1.3741,-1.3743 V 22.51011 L 69.6126,9.4773092 c -0.3835,-0.3091004 -0.9306,-0.3091004 -1.3141,0 z"
     id="path14479"
     sodipodi:nodetypes="ccscccsssscccscccc"
     style="font-size:40px;line-height:1.25;letter-spacing:0px;word-spacing:0px;fill:#ffffff;stroke-width:0.085889" />
</svg>
