<?xml version="1.0" encoding="UTF-8"?>
<svg enable-background="new" version="1.1" viewBox="0 0 620 620" xmlns="http://www.w3.org/2000/svg" xmlns:cc="http://creativecommons.org/ns#" xmlns:dc="http://purl.org/dc/elements/1.1/" xmlns:rdf="http://www.w3.org/1999/02/22-rdf-syntax-ns#" xmlns:xlink="http://www.w3.org/1999/xlink">
<defs>
<filter>
<feBlend in2="BackgroundImage" mode="multiply"/>
</filter>
<filter>
<feBlend in2="BackgroundImage" mode="multiply"/>
</filter>
<style><![CDATA[ .sb3-label {
      font: 500 12pt Helevetica Neue, Helvetica, sans-serif;
      fill: #fff;
      word-spacing: +1pt;
    }
    .sb3-motion { fill: #4c97ff; stroke: #3373cc; }
    .sb3-motion-alt { fill: #4280d7; }
    .sb3-motion-dark { fill: #4c97ff; }
    .sb3-looks { fill: #9966ff; stroke: #774dcb; }
    .sb3-looks-alt { fill: #855cd6; }
    .sb3-looks-dark { fill: #bd42bd; }
    .sb3-sound { fill: #cf63cf; stroke: #bd42bd; }
    .sb3-sound-alt { fill: #c94fc9; }
    .sb3-sound-dark { fill: #bd42bd; }
    .sb3-control { fill: #ffab19; stroke: #cf8b17; }
    .sb3-control-alt { fill: #ec9c13; }
    .sb3-control-dark { fill: #cf8b17; }
    .sb3-events { fill: #ffbf00; stroke: #cc9900; }
    .sb3-events-alt { fill: #e6ac00; }
    .sb3-events-dark { fill: #cc9900; }
    .sb3-sensing { fill: #5cb1d6; stroke: #2e8eb8; }
    .sb3-sensing-alt { fill: #47a8d1; }
    .sb3-sensing-dark { fill: #2e8eb8; }
    .sb3-operators { fill: #59c059; stroke: #389438; }
    .sb3-operators-alt { fill: #46b946; }
    .sb3-operators-dark { fill: #389438; }
    .sb3-variables { fill: #ff8c1a; stroke: #db6e00; }
    .sb3-variables-alt { fill: #ff8000; }
    .sb3-variables-dark { fill: #db6e00; }
    .sb3-list { fill: #ff661a; stroke: #e64d00; }
    .sb3-list-alt { fill: #ff5500; }
    .sb3-list-dark { fill: #e64d00; }
    .sb3-custom { fill: #ff6680; stroke: #ff3355; }
    .sb3-custom-alt { fill: #ff4d6a; }
    .sb3-custom-dark { fill: #ff3355; }
    .sb3-custom-arg { fill: #ff6680; stroke: #ff3355; }
    /* extension blocks, e.g. pen */
    .sb3-extension { fill: #0fbd8c; stroke: #0b8e69; }
    .sb3-extension-alt { fill: #0da57a; }
    .sb3-extension-line { stroke: #0da57a; }
    .sb3-extension-dark { fill: #0b8e69; }
    /* obsolete colors: chosen by hand, indicates invalid blocks */
    .sb3-obsolete { fill: #ed4242; stroke: #ca2b2b; }
    .sb3-obsolete-alt { fill: #db3333; }
    .sb3-obsolete-dark { fill: #ca2b2b; }
    /* grey: special color from the Scratch 3.0 design mockups */
    .sb3-grey { fill: #bfbfbf; stroke: #909090; }
    .sb3-grey-alt { fill: #b2b2b2; }
    .sb3-grey-dark { fill: #909090; }
    .sb3-input-color {
      stroke: #fff;
    }
    .sb3-input-number,
    .sb3-input-string {
      fill: #fff;
    }
    .sb3-literal-number,
    .sb3-literal-string,
    .sb3-literal-number-dropdown,
    .sb3-literal-dropdown {
      word-spacing: 0;
    }
    .sb3-literal-number,
    .sb3-literal-string {
      fill: #575e75;
    }
    .sb3-comment {
      fill: #ffffa5;
      stroke: #d0d1d2;
      stroke-width: 1;
    }
    .sb3-comment-line {
      fill: #ffff80;
    }
    .sb3-comment-label {
      font: 400 12pt Helevetica Neue, Helvetica, sans-serif;
      fill: #000;
      word-spacing: 0;
    }
    .sb3-diff {
      fill: none;
      stroke: #000;
    }
    .sb3-diff-ins {
      stroke-width: 2px;
    }
    .sb3-diff-del {
      stroke-width: 3px;
    }
  ]]></style>
</defs>
<metadata>
<rdf:RDF>
<cc:Work rdf:about="">
<dc:format>image/svg+xml</dc:format>
<dc:type rdf:resource="http://purl.org/dc/dcmitype/StillImage"/>
</cc:Work>
</rdf:RDF>
</metadata>
<g transform="translate(-8398 -3504.1)" font-size="40px" letter-spacing="0px" word-spacing="0px">
<flowRoot fill="#000000" font-family="sans-serif" style="line-height:1.25" xml:space="preserve"><flowRegion><rect x="-1029.5" y="1912.6" width="65.761" height="73.186" style=""/></flowRegion><flowPara/></flowRoot>
<flowRoot fill="#000000" font-family="sans-serif" style="line-height:1.25" xml:space="preserve"><flowRegion><rect x="7430.3" y="5171.3" width="461.03" height="166.17" style=""/></flowRegion><flowPara/></flowRoot>
<text x="3617" y="2319.25" font-family="sans-serif" style="line-height:1.25" xml:space="preserve"><tspan x="3617" y="2319.25"/></text>
<g transform="translate(-13 668.82)" style="line-height:1.25" aria-label="L'ATELIER NUMERIQUE">
<use transform="translate(6542 3282.4)" width="100%" height="100%" href="#sb3-greenFlag"/>
<use transform="translate(6610 3563.4)" width="100%" height="100%" href="#sb3-loopArrow"/>
<use transform="translate(6740 3436.4)" width="100%" height="100%" href="#sb3-dropdownArrow"/>
<use transform="translate(6660 3484.4)" width="100%" height="100%" href="#sb3-dropdownArrow"/>
<path d="m8454.1 3060q-0.1725 0.4669-0.62 0.6731-0.4476 0.2061-0.9145 0.034l-30.397-11.226q-0.5136-0.1897-0.737-0.5905-0.2062-0.4476-0.016-0.9612l1.345-3.6421q0.3277-0.8872 1.2939-1.0609l25.664-5.6979-20.358-7.5184q-0.5136-0.1897-0.737-0.5906-0.2061-0.4475-0.016-0.9611l1.4829-4.0157q0.1897-0.5136 0.6373-0.7197 0.4475-0.2062 0.9612-0.017l30.35 11.209q0.5136 0.1897 0.7197 0.6373 0.2062 0.4475 0.034 0.9145l-1.3622 3.6887q-0.3449 0.9339-1.3111 1.1077l-25.179 5.8236 19.938 7.3632q0.4669 0.1724 0.673 0.62 0.2234 0.4008 0.034 0.9145z" stroke-width=".93329"/>
<path d="m8470.9 3020.5q-2.0816 4.0789-5.9409 5.0711-3.8593 0.9923-8.5146-1.3834l-12.458-6.3579q-0.4877-0.2489-0.5953-0.695-0.152-0.4687 0.074-0.9121l2.0363-3.9902q0.2263-0.4434 0.695-0.5954 0.4687-0.1519 0.9121 0.074l12.192 6.2222q5.4533 2.7829 7.8742-1.961 1.1766-2.3055 0.3923-4.3822-0.7617-2.1211-3.2888-3.4107l-12.192-6.2222q-0.4877-0.2488-0.5953-0.695-0.152-0.4687 0.074-0.912l2.0137-3.9459q0.2489-0.4877 0.695-0.5954 0.4244-0.1746 0.9121 0.074l20.926 10.68q0.4433 0.2262 0.5953 0.695 0.1746 0.4243-0.074 0.912l-1.8779 3.6799q-0.2263 0.4434-0.695 0.5953-0.4688 0.152-0.9121-0.074l-1.8178-0.9277q2.0808 4.1354-0.4307 9.0567z" stroke-width=".93329"/>
<path d="m8455.6 2985q-0.2607 0.424-0.74 0.5383-0.4794 0.1143-0.9034-0.1464l-3.0952-1.9034q-0.4664-0.2868-0.5807-0.7661t0.1465-0.9033l2.3987-3.9008q0.2868-0.4664 0.7661-0.5807t0.9457 0.1725l3.0953 1.9033q0.424 0.2607 0.5122 0.7825 0.1143 0.4793-0.1465 0.9033zm25.757 15.605q-0.2608 0.424-0.7401 0.5383t-0.9033-0.1464l-20.013-12.306q-0.4664-0.2868-0.5383-0.7401-0.1143-0.4793 0.1464-0.9033l2.2162-3.604q0.2608-0.424 0.7401-0.5383t0.9033 0.1464l20.013 12.306q0.424 0.2608 0.5383 0.7401t-0.1464 0.9033z" stroke-width=".93329"/>
<path d="m8494.5 2980.8q-2.6088 3.7028-5.84 4.2271-3.2719 0.4957-7.0155-2.1418l-9.196-6.479-2.2648 3.2145q-0.2867 0.4069-0.7722 0.4911-0.4855 0.084-0.8924-0.2026l-2.4008-1.6914q-0.4069-0.2867-0.491-0.7722-0.084-0.4855 0.2025-0.8924l2.2648-3.2146-6.7546-4.7589q-0.4476-0.3154-0.4911-0.7722-0.084-0.4855 0.2025-0.8924l2.3795-3.3774q0.3154-0.4476 0.7722-0.491 0.4448-0.1128 0.8924 0.2025l6.7547 4.759 3.5835-5.0863q0.2867-0.407 0.7722-0.4911 0.4855-0.084 0.8924 0.2025l2.4008 1.6915q0.4069 0.2866 0.491 0.7722 0.084 0.4855-0.2025 0.8924l-3.5835 5.0863 8.7484 6.1637q1.7497 1.2328 3.0749 1.2531 1.3253 0.02 2.3-1.3631l2.0068-2.8484q0.3153-0.4476 0.7722-0.491 0.4448-0.1129 0.8924 0.2025l2.5635 1.8061q0.4069 0.2867 0.4911 0.7722 0.1128 0.4448-0.2026 0.8924z" stroke-width=".93329"/>
<path d="m8514.3 2957.4q-3.4201 3.6847-7.5836 3.4874-4.1999-0.231-8.3092-3.7058l-1.2377-1.081-1.1701-1.1539q-3.7316-3.7354-4.2743-7.9065-0.5453-4.2415 2.8748-7.9261 3.2509-3.5022 7.5888-3.3468l-8.0989-7.5175q-0.4013-0.3725-0.3832-0.831-0.018-0.4924 0.3203-0.8573l2.9461-3.1739q0.3725-0.4013 0.8311-0.3831 0.4559-0.052 0.8572 0.3203l24.151 22.417q0.3648 0.3386 0.3832 0.831 0.052 0.4559-0.3203 0.8572l-2.7429 2.955q-0.3386 0.3649-0.8311 0.3832-0.4924 0.018-0.8572-0.3203l-1.3498-1.2529q0.7277 4.4107-2.794 8.2048zm-2.6532-5.0435q1.9302-2.0794 1.5311-4.2835-0.4016-2.2744-2.2701-4.2124-0.4039-0.4429-1.3524-1.3233-0.985-0.9143-1.4567-1.2842-1.8918-1.6202-4.1506-1.7474-2.2589-0.1272-4.1214 1.8793-3.6233 3.9035 0.9552 8.6288l1.0606 1.0523 1.1283 0.9794q5.0527 4.2146 8.676 0.311z" stroke-width=".93329"/>
<path d="m8536 2936q-3.4654 2.9936-7.4141 2.4581-3.9487-0.5354-7.3653-4.4905l-9.1434-10.584q-0.358-0.4144-0.2895-0.8681 0.036-0.4915 0.4125-0.8169l3.3901-2.9285q0.3767-0.3254 0.8681-0.2895 0.4914 0.036 0.8168 0.4126l8.9483 10.358q4.0023 4.6331 8.0326 1.1514 1.9587-1.692 2.015-3.9112 0.094-2.2517-1.7609-4.3987l-8.9482-10.358q-0.3579-0.4143-0.2895-0.8681 0.036-0.4915 0.4126-0.8169l3.3523-2.8959q0.4144-0.358 0.8682-0.2895 0.4589 0 0.8168 0.4125l15.358 17.779q0.3254 0.3767 0.2895 0.8681 0 0.4589-0.4126 0.8169l-3.1263 2.7007q-0.3767 0.3254-0.8681 0.2895-0.4915-0.036-0.8169-0.4126l-1.3341-1.5443q0.3688 4.6147-3.8123 8.2265z" stroke-width=".93329"/>
<path d="m8571 2909.8q-4.6206 2.9375-9.0219 2.1376-4.3594-0.8265-7.4115-5.2563l-1.1102-1.6535-1.0261-1.7069q-2.7161-4.6434-1.6147-8.9416 1.1433-4.3248 5.7639-7.2623 3.3185-2.1097 6.3345-2.3756 3.058-0.2926 5.2451 0.7353 2.2023 0.9592 3.2744 2.46 0.309 0.3934 0.1599 0.9011-0.1071 0.4809-0.5271 0.748l-3.7385 2.3767q-0.4621 0.2937-0.7789 0.2592-0.3436-0.077-0.8741-0.447-1.6448-1.1957-3.1489-1.2421-1.4622-0.073-3.0584 0.9416-2.1422 1.3619-2.5059 3.4805-0.3216 2.0919 1.3569 4.9177l0.9461 1.5809 0.9233 1.3595q3.7236 5.3005 8.0922 2.5232 1.6382-1.0415 2.219-2.3545 0.5542-1.355 0.1428-3.3938-0.1257-0.5689-0.049-0.9124 0.1185-0.3703 0.5805-0.664l3.7385-2.3767q0.4201-0.2671 0.9011-0.16 0.5229 0.08 0.748 0.5272 0.8506 1.5236 0.8534 3.9401-0.024 2.3746-1.5178 5.0348-1.4939 2.6602-4.8964 4.8233z" stroke-width=".93329"/>
<path d="m8597.5 2894.9q-5.9839 2.9464-10.558 1.093-4.5297-1.8752-7.4362-7.102-0.6383-1.1837-2.0675-4.0863-1.4513-2.9473-2.0223-4.2196-2.3713-5.3793-1.0065-10.157 1.3648-4.7777 7.2594-7.6801 5.8945-2.9024 10.514-1.0711 4.619 1.8313 7.4369 6.9907 1.3206 2.4568 2.1562 4.1537 0.8355 1.6969 1.9336 4.1523 2.3706 5.4906 1.0504 10.246-1.2755 4.7338-7.2593 7.6802zm-2.5726-5.2248q2.7686-1.3632 3.2734-3.8311 0.4829-2.5125-1.0769-5.9056-0.593-1.317-1.9123-3.9964-1.3193-2.6793-1.9576-3.863-1.6945-3.2159-3.9803-4.3652-2.2859-1.1492-5.0765 0.1694-2.7467 1.4079-3.2295 3.9204t1.033 5.8164q0.5491 1.2277 1.8683 3.907 1.3193 2.6793 2.0016 3.9524 1.7385 3.3052 4.0243 4.4544 2.2638 1.1046 5.0325-0.2587z" stroke-width=".93329"/>
<path d="m8624.3 2883.4q-4.7311 1.7003-8.338-0.3886-3.6237-2.1356-5.676-7.1104l-0.6024-1.529-0.5087-1.5626q-1.5971-5.0326-0.1619-8.9864 1.4653-4.0175 6.1963-5.7178 4.4969-1.6161 8.278 0.5159l-3.7373-10.399q-0.1852-0.5153 0.042-0.9142 0.2101-0.4457 0.6785-0.6141l4.0753-1.4646q0.5152-0.1851 0.9141 0.042 0.4289 0.1633 0.6141 0.6785l11.144 31.01q0.1683 0.4684-0.042 0.9142-0.1632 0.4289-0.6785 0.614l-3.7942 1.3636q-0.4684 0.1684-0.9142-0.042-0.4457-0.21-0.6141-0.6784l-0.6228-1.7332q-1.3811 4.2517-6.2527 6.0025zm-0.038-5.6987q2.67-0.9596 3.3287-3.1004 0.6887-2.2045-0.08-4.7845-0.1551-0.579-0.5928-1.7969-0.4546-1.2647-0.7034-1.81-0.9354-2.3084-2.8831-3.4597-1.9476-1.1513-4.5239-0.2254-5.0122 1.8013-3.1179 8.1023l0.4582 1.4221 0.5519 1.3885q2.55 6.0653 7.5622 4.264z" stroke-width=".93329"/>
<path d="m8655 2874q-5.416 1.3214-9.3627-0.9948-3.8983-2.328-5.4839-7.9869l-0.3433-1.1971q-1.4748-6.0446 0.8189-10.293 2.3421-4.2604 7.9515-5.629 5.7545-1.404 9.6988 1.3226 3.9927 2.7148 5.4085 8.5176l0.2478 1.0155q0.118 0.4836-0.138 0.9047-0.2559 0.4211-0.7878 0.5509l-16.054 3.917 0.094 0.3869q0.7574 2.6843 2.5479 4.1432 1.8271 1.3987 4.245 0.8088 2.7563-0.6725 3.9544-3.3217 0.3055-0.6381 0.5237-0.7938 0.2064-0.2041 0.7866-0.3456l4.2555-1.0383q0.4352-0.1062 0.7843 0.065 0.3975 0.1592 0.5037 0.5944 0.2831 1.1606-0.7299 3.0985-0.9764 1.8778-3.2562 3.6637t-5.6647 2.6118zm1.5426-16.567-0.024-0.097q-0.6961-2.8531-2.5597-4.1916-1.8271-1.3987-4.2933-0.797t-3.4439 2.6847q-0.9894 2.0347-0.2933 4.8877l0.024 0.097z" stroke-width=".93329"/>
<path d="m8981 3145.2a259.96 259.61 0 0 1-259.96 259.61 259.96 259.61 0 0 1-259.96-259.61 259.96 259.61 0 0 1 259.96-259.61 259.96 259.61 0 0 1 259.96 259.61z" fill="#261b0c" stroke-dasharray="36.8636, 36.8636" stroke-linecap="round" stroke-width="12.288" style="paint-order:fill markers stroke"/>
<path d="m8584.8 2995a4.4933 4.4873 0 0 1-4.4933 4.4873 4.4933 4.4873 0 0 1-4.4933-4.4873 4.4933 4.4873 0 0 1 4.4933-4.4873 4.4933 4.4873 0 0 1 4.4933 4.4873z" fill="#fff" stroke-dasharray="19.636, 19.636" stroke-linecap="round" stroke-width="6.5453" style="paint-order:fill markers stroke"/>
<path d="m8665.7 2981.6a4.4933 4.4873 0 0 1-4.4933 4.4873 4.4933 4.4873 0 0 1-4.4933-4.4873 4.4933 4.4873 0 0 1 4.4933-4.4872 4.4933 4.4873 0 0 1 4.4933 4.4872z" fill="#fff" stroke-dasharray="19.636, 19.636" stroke-linecap="round" stroke-width="6.5453" style="paint-order:fill markers stroke"/>
<path d="m8721.5 2943a4.4933 4.4873 0 0 1-4.4933 4.4873 4.4933 4.4873 0 0 1-4.4933-4.4873 4.4933 4.4873 0 0 1 4.4933-4.4873 4.4933 4.4873 0 0 1 4.4933 4.4873z" fill="#fff" stroke-dasharray="19.636, 19.636" stroke-linecap="round" stroke-width="6.5453" style="paint-order:fill markers stroke"/>
<path d="m8622.2 2947.9a3.0636 3.0595 0 0 1-3.0636 3.0595 3.0636 3.0595 0 0 1-3.0636-3.0595 3.0636 3.0595 0 0 1 3.0636-3.0595 3.0636 3.0595 0 0 1 3.0636 3.0595z" fill="#fff" stroke-dasharray="13.3882, 13.3882" stroke-linecap="round" stroke-width="4.4627" style="paint-order:fill markers stroke"/>
<path d="m8530.5 3139.9a4.4933 4.4873 0 0 1-4.4933 4.4873 4.4933 4.4873 0 0 1-4.4933-4.4873 4.4933 4.4873 0 0 1 4.4933-4.4872 4.4933 4.4873 0 0 1 4.4933 4.4872z" fill="#fff" stroke-dasharray="19.636, 19.636" stroke-linecap="round" stroke-width="6.5453" style="paint-order:fill markers stroke"/>
<path d="m8499.9 3198.8a3.0636 3.0595 0 0 1-3.0636 3.0595 3.0636 3.0595 0 0 1-3.0636-3.0595 3.0636 3.0595 0 0 1 3.0636-3.0595 3.0636 3.0595 0 0 1 3.0636 3.0595z" fill="#fff" stroke-dasharray="13.3882, 13.3882" stroke-linecap="round" stroke-width="4.4627" style="paint-order:fill markers stroke"/>
<path d="m8546.2 3191.5a3.0636 3.0595 0 0 1-3.0636 3.0595 3.0636 3.0595 0 0 1-3.0636-3.0595 3.0636 3.0595 0 0 1 3.0636-3.0595 3.0636 3.0595 0 0 1 3.0636 3.0595z" fill="#fff" stroke-dasharray="13.3882, 13.3882" stroke-linecap="round" stroke-width="4.4627" style="paint-order:fill markers stroke"/>
<path d="m8599.5 3162.9a3.0636 3.0595 0 0 1-3.0636 3.0595 3.0636 3.0595 0 0 1-3.0636-3.0595 3.0636 3.0595 0 0 1 3.0636-3.0595 3.0636 3.0595 0 0 1 3.0636 3.0595z" fill="#fff" stroke-dasharray="13.3882, 13.3882" stroke-linecap="round" stroke-width="4.4627" style="paint-order:fill markers stroke"/>
<path d="m8957.8 3208.4a4.4933 4.4873 0 0 1-4.4933 4.4872 4.4933 4.4873 0 0 1-4.4933-4.4872 4.4933 4.4873 0 0 1 4.4933-4.4873 4.4933 4.4873 0 0 1 4.4933 4.4873z" fill="#fff" stroke-dasharray="19.636, 19.636" stroke-linecap="round" stroke-width="6.5453" style="paint-order:fill markers stroke"/>
<path d="m8941.4 3151.1a3.0636 3.0595 0 0 1-3.0636 3.0595 3.0636 3.0595 0 0 1-3.0636-3.0595 3.0636 3.0595 0 0 1 3.0636-3.0595 3.0636 3.0595 0 0 1 3.0636 3.0595z" fill="#fff" stroke-dasharray="13.3882, 13.3882" stroke-linecap="round" stroke-width="4.4627" style="paint-order:fill markers stroke"/>
<path d="m8837.9 2989.4a43.614 43.555 0 0 0-24.926 39.308 43.614 43.555 0 0 0 43.613 43.556 43.614 43.555 0 0 0 41.963-31.816 40.438 40.383 0 0 1-25.531 9.1539 40.438 40.383 0 0 1-40.438-40.383 40.438 40.383 0 0 1 5.3187-19.82z" fill="#fff" stroke-dasharray="29.5288, 29.5288" stroke-linecap="round" stroke-width="9.8429" style="paint-order:fill markers stroke"/>
<path d="m8761.7 2989.2a4.4933 4.4873 0 0 1-4.4933 4.4873 4.4933 4.4873 0 0 1-4.4932-4.4873 4.4933 4.4873 0 0 1 4.4932-4.4872 4.4933 4.4873 0 0 1 4.4933 4.4872z" fill="#fff" stroke-dasharray="19.636, 19.636" stroke-linecap="round" stroke-width="6.5453" style="paint-order:fill markers stroke"/>
<path class="sb3-control" d="m8563.9 3048.4c0-2.4396 1.9805-4.4174 4.4233-4.4174h8.8467c2.2116 0 3.3175 1.1043 4.4233 2.2087l4.4233 4.4174c1.1058 1.1043 2.2117 2.2087 4.4233 2.2087h13.27c2.2116 0 3.3174-1.1044 4.4233-2.2087l4.4233-4.4174c1.1058-1.1044 2.2116-2.2087 4.4233-2.2087h119.43c2.4429 0 4.4233 1.9778 4.4233 4.4174v44.174c0 2.4396-1.9804 4.4174-4.4233 4.4174h-101.74c-2.2117 0-3.3175 1.1044-4.4234 2.2087l-4.4233 4.4174c-1.1058 1.1044-2.2116 2.2087-4.4233 2.2087h-13.27c-2.2117 0-3.3175-1.1043-4.4233-2.2087l-4.4234-4.4174c-1.1058-1.1043-2.2116-2.2087-4.4233-2.2087h-8.8466c-2.4429 0-4.4233 1.9778-4.4233 4.4174v150.25c0 2.4397 1.9804 4.4174 4.4233 4.4174h8.8466c2.2117 0 3.3175 1.1043 4.4233 2.2087l4.4234 4.4174c1.1058 1.1043 2.2116 2.2087 4.4233 2.2087h13.27c2.2117 0 3.3175-1.1044 4.4233-2.2087l4.4233-4.4174c1.1059-1.1044 2.2117-2.2087 4.4234-2.2087h101.74c2.4429 0 4.4233 1.9778 4.4233 4.4174v26.504c0 2.4397-1.9804 4.4174-4.4233 4.4174h-119.43c-2.2117 0-3.3175 1.1043-4.4233 2.2086l-4.4233 4.4174c-1.1059 1.1044-2.2117 2.2087-4.4233 2.2087h-13.27c-2.2116 0-3.3175-1.1043-4.4233-2.2087l-4.4233-4.4174c-1.1058-1.1043-2.2117-2.2086-4.4233-2.2086h-8.8467c-2.4428 0-4.4233-1.9777-4.4233-4.4174z" stroke-width="1.1051"/>
<path d="m8580 3068.9q-0.2678-0.1553-0.5874-0.2243-0.3111-0.077-0.6912-0.077-1.3477 0-2.0734 0.88-0.7171 0.8714-0.7171 2.5107v5.0904h-1.5983v-9.6631h1.5983v1.5012q0.5012-0.88 1.3045-1.3028 0.8035-0.4314 1.9525-0.4314 0.1642 0 0.3629 0.026 0.1987 0.018 0.4406 0.061z" fill="#fff" stroke-width="1.1051"/>
<path d="m8589.5 3071.9v0.7765h-7.3087q0.1039 1.6393 0.9848 2.502 0.8899 0.8542 2.4709 0.8542 0.9157 0 1.771-0.2244 0.864-0.2243 1.7106-0.6729v1.5012q-0.8553 0.3624-1.7538 0.5521-0.8984 0.1899-1.8229 0.1899-2.3153 0-3.6717-1.3459-1.3477-1.346-1.3477-3.6409 0-2.3726 1.2786-3.7618 1.2873-1.3976 3.4643-1.3976 1.9526 0 3.0843 1.2596 1.1403 1.2511 1.1403 3.408zm-1.5896-0.4659q-0.018-1.3028-0.7343-2.0793-0.7084-0.7764-1.8833-0.7764-1.3305 0-2.1339 0.7506-0.7949 0.7505-0.9159 2.1137zm-1.5291-8.4379h1.7192l-2.8164 3.244h-1.3218z" fill="#fff" stroke-width="1.1051"/>
<path d="m8593.7 3075.7v5.1248h-1.5983v-13.338h1.5983v1.4667q0.5011-0.8629 1.2614-1.277 0.7689-0.4227 1.8315-0.4227 1.7624 0 2.8596 1.3976 1.1059 1.3978 1.1059 3.6755t-1.1059 3.6754q-1.0972 1.3977-2.8596 1.3977-1.0626 0-1.8315-0.4142-0.7603-0.4227-1.2614-1.2854zm5.4083-3.3735q0-1.7515-0.7258-2.7436-0.717-1.0009-1.9783-1.0009-1.2614 0-1.9871 1.0009-0.7171 0.9921-0.7171 2.7436 0 1.7514 0.7171 2.7523 0.7257 0.9921 1.9871 0.9921 1.2613 0 1.9783-0.9921 0.7258-1.0009 0.7258-2.7523z" fill="#fff" stroke-width="1.1051"/>
<path d="m8611.6 3071.9v0.7765h-7.3088q0.104 1.6393 0.9849 2.502 0.8899 0.8542 2.4709 0.8542 0.9157 0 1.7709-0.2244 0.864-0.2243 1.7107-0.6729v1.5012q-0.8553 0.3624-1.7538 0.5521-0.8985 0.1899-1.8229 0.1899-2.3153 0-3.6717-1.3459-1.3477-1.346-1.3477-3.6409 0-2.3726 1.2786-3.7618 1.2873-1.3976 3.4643-1.3976 1.9526 0 3.0843 1.2596 1.1403 1.2511 1.1403 3.408zm-1.5896-0.4659q-0.018-1.3028-0.7343-2.0793-0.7084-0.7764-1.8833-0.7764-1.3306 0-2.134 0.7506-0.7948 0.7505-0.9158 2.1137zm-1.5292-8.4379h1.7193l-2.8165 3.244h-1.3218z" fill="#fff" stroke-width="1.1051"/>
<path d="m8615.8 3064.7v2.7437h3.2742v1.2337h-3.2742v5.2456q0 1.1821 0.3197 1.5185 0.3282 0.3365 1.3218 0.3365h1.6327v1.3287h-1.6327q-1.8402 0-2.54-0.6816-0.6998-0.6902-0.6998-2.5021v-5.2456h-1.1663v-1.2337h1.1663v-2.7437z" fill="#fff" stroke-width="1.1051"/>
<path d="m8629.5 3071.9v0.7765h-7.3088q0.104 1.6393 0.9849 2.502 0.8898 0.8542 2.4708 0.8542 0.9158 0 1.771-0.2244 0.864-0.2243 1.7106-0.6729v1.5012q-0.8552 0.3624-1.7537 0.5521-0.8985 0.1899-1.823 0.1899-2.3153 0-3.6717-1.3459-1.3476-1.346-1.3476-3.6409 0-2.3726 1.2785-3.7618 1.2873-1.3976 3.4644-1.3976 1.9524 0 3.0842 1.2596 1.1404 1.2511 1.1404 3.408zm-1.5897-0.4659q-0.018-1.3028-0.7342-2.0793-0.7085-0.7764-1.8835-0.7764-1.3304 0-2.1338 0.7506-0.7949 0.7505-0.9158 2.1137z" fill="#fff" stroke-width="1.1051"/>
<path d="m8637.7 3068.9q-0.2678-0.1553-0.5874-0.2243-0.3111-0.077-0.6911-0.077-1.3478 0-2.0735 0.88-0.7171 0.8714-0.7171 2.5107v5.0904h-1.5982v-9.6631h1.5982v1.5012q0.5012-0.88 1.3046-1.3028 0.8035-0.4314 1.9524-0.4314 0.1642 0 0.3629 0.026 0.1988 0.018 0.4406 0.061z" fill="#fff" stroke-width="1.1051"/>
<path class="sb3-control sb3-input sb3-input-number" d="m8660.1 3052.8h8.8467c9.802 0 17.693 7.8806 17.693 17.67 0 9.789-7.8912 17.67-17.693 17.67h-8.8467c-9.802 0-17.693-7.8806-17.693-17.67 0-9.7889 7.8912-17.67 17.693-17.67z" fill="#fff" stroke="#cf8b17" stroke-width="1.1051"/>
<path d="m8655.1 3075.6h2.851v-9.8269l-3.1015 0.6212v-1.5875l3.0841-0.6212h1.7453v11.414h2.8509v1.4668h-7.4298z" fill="#575e75" stroke-width="1.1051"/>
<path d="m8669.8 3065.4q-1.3478 0-2.0303 1.3287-0.6738 1.32-0.6738 3.9773 0 2.6488 0.6738 3.9774 0.6825 1.32 2.0303 1.32 1.3563 0 2.0302-1.32 0.6825-1.3286 0.6825-3.9774 0-2.6573-0.6825-3.9773-0.6739-1.3287-2.0302-1.3287zm0-1.3804q2.1684 0 3.3089 1.7168 1.1489 1.7083 1.1489 4.9696 0 3.2527-1.1489 4.9696-1.1405 1.7083-3.3089 1.7083-2.1685 0-3.3175-1.7083-1.1404-1.7169-1.1404-4.9696 0-3.2613 1.1404-4.9696 1.149-1.7168 3.3175-1.7168z" fill="#575e75" stroke-width="1.1051"/>
<path d="m8697.6 3063.7v1.3201h-1.5206q-0.8552 0-1.1921 0.3451-0.3284 0.3451-0.3284 1.2424v0.8542h2.6178v1.2337h-2.6178v8.4293h-1.5982v-8.4293h-1.5205v-1.2337h1.5205v-0.673q0-1.6135 0.7516-2.3467 0.7516-0.7421 2.3844-0.7421z" fill="#fff" stroke-width="1.1051"/>
<path d="m8702.7 3068.6q-1.2786 0-2.0216 1.0007-0.743 0.9923-0.743 2.7264 0 1.7342 0.7344 2.7349 0.743 0.9923 2.0302 0.9923 1.2701 0 2.0131-1.0009 0.7429-1.0007 0.7429-2.7263 0-1.7169-0.7429-2.7178-0.743-1.0093-2.0131-1.0093zm0-1.346q2.0734 0 3.2571 1.346 1.1836 1.3458 1.1836 3.7271 0 2.3726-1.1836 3.7272-1.1837 1.3459-3.2571 1.3459-2.082 0-3.2656-1.3459-1.175-1.3546-1.175-3.7272 0-2.3813 1.175-3.7271 1.1836-1.346 3.2656-1.346z" fill="#fff" stroke-width="1.1051"/>
<path d="m8709.7 3067.4h1.5896v9.663h-1.5896zm0-3.7618h1.5896v2.0103h-1.5896z" fill="#fff" stroke-width="1.1051"/>
<path d="m8720.8 3067.7v1.5011q-0.6739-0.3451-1.3995-0.5176-0.7258-0.1726-1.5033-0.1726-1.1836 0-1.7797 0.3625-0.5874 0.3623-0.5874 1.087 0 0.5521 0.4233 0.8714 0.4233 0.3107 1.702 0.5954l0.5443 0.1207q1.6932 0.3624 2.4016 1.0267 0.7171 0.6557 0.7171 1.8377 0 1.3459-1.0713 2.1311-1.0626 0.7851-2.9287 0.7851-0.7775 0-1.6242-0.1553-0.838-0.1467-1.771-0.4487v-1.6392q0.8811 0.4572 1.7365 0.6902 0.8552 0.2243 1.6932 0.2243 1.1232 0 1.7279-0.3796 0.6048-0.3882 0.6048-1.0871 0-0.6471-0.4406-0.9922-0.4321-0.3451-1.9093-0.6643l-0.5529-0.1294q-1.4773-0.3107-2.134-0.9491-0.6565-0.647-0.6565-1.7687 0-1.3631 0.9676-2.1051t2.7472-0.742q0.8813 0 1.6588 0.1294 0.7776 0.1294 1.4341 0.3883z" fill="#fff" stroke-width="1.1051"/>
<path class="sb3-motion" d="m8581.5 3101.4c0-2.4396 1.9804-4.4174 4.4233-4.4174h8.8466c2.2117 0 3.3175 1.1044 4.4233 2.2087l4.4234 4.4174c1.1058 1.1044 2.2116 2.2087 4.4233 2.2087h13.27c2.2117 0 3.3175-1.1043 4.4233-2.2087l4.4233-4.4174c1.1059-1.1043 2.2117-2.2087 4.4234-2.2087h145.97c2.4429 0 4.4233 1.9778 4.4233 4.4174v44.174c0 2.4396-1.9804 4.4173-4.4233 4.4173h-145.97c-2.2117 0-3.3175 1.1044-4.4234 2.2087l-4.4233 4.4174c-1.1058 1.1044-2.2116 2.2087-4.4233 2.2087h-13.27c-2.2117 0-3.3175-1.1043-4.4233-2.2087l-4.4234-4.4174c-1.1058-1.1043-2.2116-2.2087-4.4233-2.2087h-8.8466c-2.4429 0-4.4233-1.9777-4.4233-4.4173z" stroke-width="1.1051"/>
<path d="m8596.5 3125.3q-1.9266 0-2.6696 0.4401-0.743 0.44-0.743 1.5011 0 0.8456 0.5529 1.346 0.5616 0.4918 1.5206 0.4918 1.3218 0 2.1166-0.9319 0.8035-0.9403 0.8035-2.4934v-0.3537zm3.1706-0.6557v5.5132h-1.5896v-1.4668q-0.5443 0.88-1.3564 1.3028-0.8121 0.4141-1.9871 0.4141-1.4859 0-2.3671-0.8283-0.8726-0.8368-0.8726-2.2345 0-1.6307 1.0886-2.4589 1.0972-0.8283 3.2656-0.8283h2.229v-0.1553q0-1.0957-0.7257-1.6911-0.7171-0.6038-2.0216-0.6038-0.8294 0-1.6156 0.1984-0.7861 0.1984-1.5118 0.5953v-1.4667q0.8725-0.3365 1.6933-0.5004 0.8207-0.1726 1.5982-0.1726 2.0994 0 3.1361 1.0871t1.0367 3.2958z" fill="#fff" stroke-width="1.1051"/>
<path d="m8601.8 3120.4h1.6847l3.0238 8.11 3.0236-8.11h1.6848l-3.6286 9.6631h-2.1598z" fill="#fff" stroke-width="1.1051"/>
<path d="m8617.8 3125.3q-1.9266 0-2.6696 0.4401-0.7429 0.44-0.7429 1.5011 0 0.8456 0.5529 1.346 0.5616 0.4918 1.5205 0.4918 1.3218 0 2.1166-0.9319 0.8035-0.9403 0.8035-2.4934v-0.3537zm3.1706-0.6557v5.5132h-1.5896v-1.4668q-0.5443 0.88-1.3564 1.3028-0.812 0.4141-1.987 0.4141-1.486 0-2.3672-0.8283-0.8725-0.8368-0.8725-2.2345 0-1.6307 1.0885-2.4589 1.0972-0.8283 3.2657-0.8283h2.2289v-0.1553q0-1.0957-0.7258-1.6911-0.717-0.6038-2.0215-0.6038-0.8294 0-1.6155 0.1984-0.7863 0.1984-1.5119 0.5953v-1.4667q0.8726-0.3365 1.6932-0.5004 0.8208-0.1726 1.5984-0.1726 2.0993 0 3.136 1.0871t1.0367 3.2958z" fill="#fff" stroke-width="1.1051"/>
<path d="m8632.3 3124.3v5.8324h-1.5896v-5.7806q0-1.3719-0.5357-2.0535-0.5356-0.6816-1.6069-0.6816-1.2873 0-2.0303 0.8197-0.7429 0.8196-0.7429 2.2345v5.4615h-1.5983v-9.6631h1.5983v1.5012q0.5702-0.8714 1.3391-1.3028 0.7775-0.4314 1.7883-0.4314 1.6674 0 2.5227 1.0353 0.8553 1.0267 0.8553 3.0284z" fill="#fff" stroke-width="1.1051"/>
<path d="m8642.4 3120.8v1.4839q-0.6738-0.371-1.3563-0.5522-0.6739-0.1897-1.365-0.1897-1.5464 0-2.4018 0.9835-0.8552 0.9749-0.8552 2.7437 0 1.7686 0.8552 2.7522 0.8554 0.9749 2.4018 0.9749 0.6911 0 1.365-0.1812 0.6825-0.1898 1.3563-0.5608v1.4667q-0.6651 0.3107-1.3823 0.4659-0.7084 0.1553-1.5118 0.1553-2.1857 0-3.473-1.3718-1.2872-1.3718-1.2872-3.7012 0-2.3641 1.2958-3.7186 1.3046-1.3546 3.5681-1.3546 0.7344 0 1.4341 0.1553 0.6998 0.1467 1.3563 0.4487z" fill="#fff" stroke-width="1.1051"/>
<path d="m8653.4 3124.9v0.7765h-7.3089q0.1039 1.6393 0.985 2.502 0.8897 0.8542 2.4707 0.8542 0.9159 0 1.7711-0.2244 0.8639-0.2243 1.7106-0.6728v1.5011q-0.8553 0.3624-1.7538 0.5522t-1.8229 0.1898q-2.3154 0-3.6717-1.3459-1.3477-1.3459-1.3477-3.6409 0-2.3726 1.2786-3.7617 1.2872-1.3977 3.4644-1.3977 1.9524 0 3.0842 1.2596 1.1404 1.2511 1.1404 3.408zm-1.5897-0.4659q-0.018-1.3028-0.7343-2.0792-0.7084-0.7765-1.8834-0.7765-1.3304 0-2.1339 0.7506-0.7948 0.7505-0.9157 2.1137z" fill="#fff" stroke-width="1.1051"/>
<path d="m8661.6 3121.9q-0.2678-0.1552-0.5875-0.2243-0.3109-0.077-0.6911-0.077-1.3477 0-2.0735 0.88-0.717 0.8714-0.717 2.5107v5.0904h-1.5982v-9.663h1.5982v1.5011q0.5011-0.8799 1.3046-1.3028 0.8035-0.4314 1.9524-0.4314 0.1642 0 0.3628 0.026 0.1988 0.018 0.4407 0.061z" fill="#fff" stroke-width="1.1051"/>
<path d="m8675.2 3121.9v-5.2284h1.5896v13.425h-1.5896v-1.4495q-0.5011 0.8627-1.27 1.2855-0.7602 0.4141-1.8316 0.4141-1.7537 0-2.8595-1.3977-1.0972-1.3976-1.0972-3.6753 0-2.2778 1.0972-3.6755 1.1058-1.3977 2.8595-1.3977 1.0714 0 1.8316 0.4228 0.7689 0.4141 1.27 1.2769zm-5.4168 3.3735q0 1.7513 0.717 2.7522 0.7257 0.9922 1.987 0.9922 1.2614 0 1.9871-0.9922 0.7257-1.0009 0.7257-2.7522 0-1.7515-0.7257-2.7437-0.7257-1.0009-1.9871-1.0009-1.2613 0-1.987 1.0009-0.717 0.9922-0.717 2.7437z" fill="#fff" stroke-width="1.1051"/>
<path d="m8688.4 3124.9v0.7765h-7.3088q0.104 1.6393 0.9849 2.502 0.8899 0.8542 2.4709 0.8542 0.9157 0 1.7709-0.2244 0.864-0.2243 1.7106-0.6728v1.5011q-0.8552 0.3624-1.7537 0.5522t-1.8229 0.1898q-2.3153 0-3.6717-1.3459-1.3477-1.3459-1.3477-3.6409 0-2.3726 1.2786-3.7617 1.2873-1.3977 3.4643-1.3977 1.9524 0 3.0843 1.2596 1.1403 1.2511 1.1403 3.408zm-1.5896-0.4659q-0.018-1.3028-0.7343-2.0792-0.7085-0.7765-1.8835-0.7765-1.3304 0-2.1338 0.7506-0.7948 0.7505-0.9158 2.1137z" fill="#fff" stroke-width="1.1051"/>
<path class="sb3-motion sb3-input sb3-input-number" d="m8713.2 3105.8h8.8466c9.8021 0 17.693 7.8806 17.693 17.67 0 9.7889-7.8912 17.67-17.693 17.67h-8.8466c-9.8021 0-17.693-7.8807-17.693-17.67 0-9.789 7.8912-17.67 17.693-17.67z" fill="#fff" stroke="#3373cc" stroke-width="1.1051"/>
<path d="m8708.2 3128.6h2.851v-9.827l-3.1016 0.6212v-1.5875l3.0843-0.6212h1.7451v11.414h2.851v1.4668h-7.4298z" fill="#575e75" stroke-width="1.1051"/>
<path d="m8722.8 3118.4q-1.3477 0-2.0302 1.3286-0.6739 1.32-0.6739 3.9773 0 2.6488 0.6739 3.9774 0.6825 1.3201 2.0302 1.3201 1.3564 0 2.0303-1.3201 0.6824-1.3286 0.6824-3.9774 0-2.6573-0.6824-3.9773-0.6739-1.3286-2.0303-1.3286zm0-1.3805q2.1685 0 3.3088 1.7169 1.1491 1.7083 1.1491 4.9695 0 3.2528-1.1491 4.9696-1.1403 1.7083-3.3088 1.7083t-3.3175-1.7083q-1.1404-1.7168-1.1404-4.9696 0-3.2612 1.1404-4.9695 1.149-1.7169 3.3175-1.7169z" fill="#575e75" stroke-width="1.1051"/>
<path d="m8748.4 3128.7v5.1249h-1.5983v-13.338h1.5983v1.4667q0.5011-0.8628 1.2614-1.2769 0.7689-0.4228 1.8315-0.4228 1.7624 0 2.8596 1.3977 1.1059 1.3977 1.1059 3.6755 0 2.2777-1.1059 3.6753-1.0972 1.3977-2.8596 1.3977-1.0626 0-1.8315-0.4141-0.7603-0.4228-1.2614-1.2855zm5.4083-3.3734q0-1.7515-0.7258-2.7437-0.717-1.0009-1.9783-1.0009-1.2614 0-1.9871 1.0009-0.7171 0.9922-0.7171 2.7437 0 1.7513 0.7171 2.7522 0.7257 0.9922 1.9871 0.9922 1.2613 0 1.9783-0.9922 0.7258-1.0009 0.7258-2.7522z" fill="#fff" stroke-width="1.1051"/>
<path d="m8762.5 3125.3q-1.9266 0-2.6695 0.4401-0.743 0.44-0.743 1.5011 0 0.8456 0.5529 1.346 0.5615 0.4918 1.5205 0.4918 1.3218 0 2.1167-0.9319 0.8034-0.9403 0.8034-2.4934v-0.3537zm3.1706-0.6557v5.5132h-1.5896v-1.4668q-0.5443 0.88-1.3563 1.3028-0.8121 0.4141-1.9871 0.4141-1.486 0-2.3671-0.8283-0.8726-0.8368-0.8726-2.2345 0-1.6307 1.0885-2.4589 1.0972-0.8283 3.2657-0.8283h2.2289v-0.1553q0-1.0957-0.7257-1.6911-0.7171-0.6038-2.0216-0.6038-0.8294 0-1.6156 0.1984-0.7861 0.1984-1.5118 0.5953v-1.4667q0.8726-0.3365 1.6933-0.5004 0.8208-0.1726 1.5983-0.1726 2.0993 0 3.136 1.0871t1.0367 3.2958z" fill="#fff" stroke-width="1.1051"/>
<path d="m8775.1 3120.7v1.5012q-0.6739-0.3451-1.3996-0.5176-0.7257-0.1727-1.5032-0.1727-1.1836 0-1.7797 0.3625-0.5875 0.3623-0.5875 1.087 0 0.5522 0.4234 0.8714 0.4233 0.3107 1.7018 0.5954l0.5443 0.1207q1.6934 0.3625 2.4018 1.0267 0.717 0.6558 0.717 1.8378 0 1.3458-1.0712 2.131-1.0627 0.7851-2.9288 0.7851-0.7775 0-1.6241-0.1553-0.838-0.1466-1.7711-0.4487v-1.6391q0.8812 0.4572 1.7364 0.6902 0.8554 0.2243 1.6934 0.2243 1.1231 0 1.7279-0.3797 0.6047-0.3882 0.6047-1.087 0-0.6472-0.4406-0.9923-0.432-0.3451-1.9093-0.6642l-0.5529-0.1295q-1.4774-0.3106-2.1339-0.949-0.6566-0.6471-0.6566-1.7688 0-1.3631 0.9676-2.1051t2.7473-0.742q0.8812 0 1.6587 0.1294 0.7775 0.1295 1.4342 0.3883z" fill="#fff" stroke-width="1.1051"/>
<path class="sb3-looks" d="m8581.5 3154.4a4.4233 4.4174 0 0 1 4.4233-4.4174h8.8466c2.2117 0 3.3175 1.1044 4.4233 2.2087l4.4234 4.4174c1.1058 1.1044 2.2116 2.2087 4.4233 2.2087h13.27c2.2117 0 3.3175-1.1043 4.4233-2.2087l4.4233-4.4174c1.1059-1.1043 2.2117-2.2087 4.4234-2.2087h245.49a4.4233 4.4174 0 0 1 4.4233 4.4174v44.174a4.4233 4.4174 0 0 1-4.4233 4.4174h-245.49c-2.2117 0-3.3175 1.1043-4.4234 2.2087l-4.4233 4.4174c-1.1058 1.1043-2.2116 2.2087-4.4233 2.2087h-13.27c-2.2117 0-3.3175-1.1044-4.4233-2.2087l-4.4234-4.4174c-1.1058-1.1044-2.2116-2.2087-4.4233-2.2087h-8.8466a4.4233 4.4174 0 0 1-4.4233-4.4174z" stroke-width="1.1051"/>
<path d="m8596.5 3178.3q-1.9266 0-2.6696 0.4401-0.743 0.44-0.743 1.5012 0 0.8456 0.5529 1.3459 0.5616 0.4918 1.5206 0.4918 1.3218 0 2.1166-0.9318 0.8035-0.9404 0.8035-2.4934v-0.3538zm3.1706-0.6556v5.5131h-1.5896v-1.4668q-0.5443 0.8801-1.3564 1.3028-0.8121 0.4141-1.9871 0.4141-1.4859 0-2.3671-0.8282-0.8726-0.8369-0.8726-2.2346 0-1.6306 1.0886-2.4589 1.0972-0.8283 3.2656-0.8283h2.229v-0.1552q0-1.0958-0.7257-1.6911-0.7171-0.6039-2.0216-0.6039-0.8294 0-1.6156 0.1985-0.7861 0.1983-1.5118 0.5952v-1.4667q0.8725-0.3365 1.6933-0.5004 0.8207-0.1726 1.5982-0.1726 2.0994 0 3.1361 1.0872 1.0367 1.0871 1.0367 3.2958z" fill="#fff" stroke-width="1.1051"/>
<path d="m8602.9 3173.5h1.5896v9.8355q0 1.8464-0.7084 2.6746-0.6997 0.8283-2.2635 0.8283h-0.6048v-1.346h0.4233q0.9072 0 1.2355-0.4227 0.3283-0.4142 0.3283-1.7342zm0-3.7618h1.5896v2.0103h-1.5896z" fill="#fff" stroke-width="1.1051"/>
<path d="m8611.6 3174.6q-1.2786 0-2.0216 1.0008-0.743 0.9922-0.743 2.7264t0.7344 2.7349q0.743 0.9923 2.0302 0.9923 1.27 0 2.0129-1.0009 0.743-1.0008 0.743-2.7263 0-1.7169-0.743-2.7178-0.7429-1.0094-2.0129-1.0094zm0-1.346q2.0734 0 3.257 1.346 1.1836 1.3459 1.1836 3.7272 0 2.3726-1.1836 3.7272-1.1836 1.3458-3.257 1.3458-2.0821 0-3.2657-1.3458-1.1749-1.3546-1.1749-3.7272 0-2.3813 1.1749-3.7272 1.1836-1.346 3.2657-1.346z" fill="#fff" stroke-width="1.1051"/>
<path d="m8618.5 3179.3v-5.8495h1.5896v5.7891q0 1.3718 0.5357 2.062 0.5356 0.6816 1.6069 0.6816 1.2873 0 2.0303-0.8196 0.7516-0.8197 0.7516-2.2346v-5.4785h1.5896v9.663h-1.5896v-1.484q-0.5789 0.88-1.3478 1.3114-0.7602 0.4227-1.7711 0.4227-1.6674 0-2.5312-1.0353-0.864-1.0353-0.864-3.0283zm4-6.0826z" fill="#fff" stroke-width="1.1051"/>
<path d="m8631.4 3170.7v2.7437h3.2743v1.2336h-3.2743v5.2457q0 1.1821 0.3196 1.5185 0.3283 0.3365 1.3218 0.3365h1.6329v1.3287h-1.6329q-1.8401 0-2.5398-0.6816-0.6998-0.6902-0.6998-2.5021v-5.2457h-1.1663v-1.2336h1.1663v-2.7437z" fill="#fff" stroke-width="1.1051"/>
<path d="m8645.1 3177.9v0.7764h-7.3088q0.1039 1.6393 0.9849 2.5021 0.8898 0.8542 2.4708 0.8542 0.9158 0 1.7711-0.2244 0.8639-0.2243 1.7106-0.6729v1.5011q-0.8554 0.3625-1.7539 0.5522-0.8984 0.1898-1.8228 0.1898-2.3154 0-3.6717-1.3458-1.3478-1.346-1.3478-3.641 0-2.3725 1.2787-3.7617 1.2872-1.3977 3.4643-1.3977 1.9525 0 3.0843 1.2597 1.1403 1.2511 1.1403 3.408zm-1.5896-0.4659q-0.018-1.3028-0.7344-2.0793-0.7084-0.7765-1.8833-0.7765-1.3304 0-2.1339 0.7506-0.7948 0.7506-0.9158 2.1138z" fill="#fff" stroke-width="1.1051"/>
<path d="m8653.3 3174.9q-0.2678-0.1553-0.5875-0.2243-0.311-0.077-0.6912-0.077-1.3476 0-2.0734 0.8799-0.717 0.8715-0.717 2.5108v5.0903h-1.5983v-9.663h1.5983v1.5011q0.501-0.8799 1.3045-1.3028 0.8035-0.4313 1.9525-0.4313 0.1642 0 0.3628 0.026 0.1987 0.018 0.4407 0.061z" fill="#fff" stroke-width="1.1051"/>
<path class="sb3-looks sb3-input sb3-input-number" d="m8676.6 3158.8h8.8466c9.8021 0 17.693 7.8807 17.693 17.67 0 9.789-7.8911 17.67-17.693 17.67h-8.8466c-9.8021 0-17.693-7.8806-17.693-17.67 0-9.7889 7.8912-17.67 17.693-17.67z" fill="#fff" stroke="#774dcb" stroke-width="1.1051"/>
<path d="m8673.3 3181.7h6.0907v1.4668h-8.19v-1.4668q0.9935-1.0267 2.7041-2.7522 1.7192-1.7342 2.1598-2.2346 0.838-0.9404 1.1663-1.5875 0.3369-0.6556 0.3369-1.2856 0-1.0266-0.7257-1.6737-0.7171-0.647-1.8747-0.647-0.8208 0-1.7365 0.2847-0.9071 0.2847-1.9439 0.8627v-1.76q1.054-0.4228 1.9699-0.6385 0.9157-0.2156 1.676-0.2156 2.0043 0 3.1965 1.0007 1.1922 1.0009 1.1922 2.6746 0 0.7937-0.3024 1.5099-0.2937 0.7075-1.0799 1.6738-0.216 0.2502-1.3737 1.4494-1.1576 1.1906-3.2656 3.3389z" fill="#575e75" stroke-width="1.1051"/>
<path d="m8683 3170.2h6.8509v1.4667h-5.2527v3.1577q0.3801-0.1294 0.7603-0.1898 0.3801-0.068 0.7603-0.068 2.1597 0 3.4211 1.182 1.2613 1.182 1.2613 3.201 0 2.0792-1.2958 3.2354-1.296 1.1474-3.6545 1.1474-0.8121 0-1.6587-0.1381-0.838-0.138-1.7365-0.4141v-1.7514q0.7775 0.4228 1.6069 0.6298 0.8293 0.2071 1.7537 0.2071 1.4946 0 2.3673-0.7851 0.8725-0.7852 0.8725-2.131 0-1.346-0.8725-2.1311-0.8727-0.7852-2.3673-0.7852-0.6998 0-1.3995 0.1554-0.6912 0.1553-1.4168 0.4831z" fill="#575e75" stroke-width="1.1051"/>
<path d="m8713.7 3178.3q-1.9266 0-2.6696 0.4401-0.743 0.44-0.743 1.5012 0 0.8456 0.5529 1.3459 0.5615 0.4918 1.5205 0.4918 1.3218 0 2.1167-0.9318 0.8035-0.9404 0.8035-2.4934v-0.3538zm3.1706-0.6556v5.5131h-1.5896v-1.4668q-0.5443 0.8801-1.3565 1.3028-0.8121 0.4141-1.987 0.4141-1.4859 0-2.3672-0.8282-0.8726-0.8369-0.8726-2.2346 0-1.6306 1.0886-2.4589 1.0972-0.8283 3.2656-0.8283h2.2291v-0.1552q0-1.0958-0.7258-1.6911-0.717-0.6039-2.0216-0.6039-0.8293 0-1.6156 0.1985-0.7861 0.1983-1.5118 0.5952v-1.4667q0.8725-0.3365 1.6933-0.5004 0.8207-0.1726 1.5982-0.1726 2.0995 0 3.1362 1.0872 1.0367 1.0871 1.0367 3.2958zm-5.3564-8.6191 2.4362 3.2268h-1.3218l-2.8164-3.2268z" fill="#fff" stroke-width="1.1051"/>
<path d="m8722 3169.7h1.5896v13.425h-1.5896z" fill="#fff" stroke-width="1.1051"/>
<path d="m8728.4 3170.2v4.7883h-1.4688v-4.7883z" fill="#fff" stroke-width="1.1051"/>
<path d="m8740 3177.9v0.7764h-7.3088q0.1039 1.6393 0.9849 2.5021 0.8898 0.8542 2.4708 0.8542 0.9158 0 1.7711-0.2244 0.8639-0.2243 1.7106-0.6729v1.5011q-0.8554 0.3625-1.7538 0.5522-0.8985 0.1898-1.8229 0.1898-2.3154 0-3.6717-1.3458-1.3478-1.346-1.3478-3.641 0-2.3725 1.2787-3.7617 1.2872-1.3977 3.4643-1.3977 1.9525 0 3.0843 1.2597 1.1403 1.2511 1.1403 3.408zm-1.5896-0.4659q-0.018-1.3028-0.7344-2.0793-0.7084-0.7765-1.8833-0.7765-1.3304 0-2.1339 0.7506-0.7948 0.7506-0.9158 2.1138z" fill="#fff" stroke-width="1.1051"/>
<path d="m8753.5 3169.7v1.32h-1.5205q-0.8553 0-1.1922 0.3452-0.3283 0.3451-0.3283 1.2423v0.8543h2.6177v1.2336h-2.6177v8.4294h-1.5983v-8.4294h-4.3628v8.4294h-1.5983v-8.4294h-1.5205v-1.2336h1.5205v-0.673q0-1.6135 0.7516-2.3468 0.7516-0.742 2.3845-0.742h1.5032v1.32h-1.5205q-0.8553 0-1.1923 0.3452-0.3282 0.3451-0.3282 1.2423v0.8543h4.3628v-0.673q0-1.6135 0.7517-2.3468 0.7516-0.742 2.3843-0.742z" fill="#fff" stroke-width="1.1051"/>
<path d="m8763.1 3177.9v0.7764h-7.3089q0.104 1.6393 0.9849 2.5021 0.8898 0.8542 2.4708 0.8542 0.9158 0 1.7711-0.2244 0.8639-0.2243 1.7106-0.6729v1.5011q-0.8553 0.3625-1.7538 0.5522-0.8985 0.1898-1.8229 0.1898-2.3153 0-3.6716-1.3458-1.3478-1.346-1.3478-3.641 0-2.3725 1.2787-3.7617 1.2871-1.3977 3.4643-1.3977 1.9524 0 3.0841 1.2597 1.1405 1.2511 1.1405 3.408zm-1.5896-0.4659q-0.018-1.3028-0.7344-2.0793-0.7084-0.7765-1.8834-0.7765-1.3304 0-2.1339 0.7506-0.7947 0.7506-0.9157 2.1138z" fill="#fff" stroke-width="1.1051"/>
<path d="m8767.3 3170.7v2.7437h3.2744v1.2336h-3.2744v5.2457q0 1.1821 0.3197 1.5185 0.3284 0.3365 1.3218 0.3365h1.6329v1.3287h-1.6329q-1.8401 0-2.5399-0.6816-0.6998-0.6902-0.6998-2.5021v-5.2457h-1.1663v-1.2336h1.1663v-2.7437z" fill="#fff" stroke-width="1.1051"/>
<path class="sb3-looks sb3-input sb3-input-dropdown" d="m8779.7 3158.8h77.67c2.0013 0 3.6126 1.976 3.6126 4.4305v26.583c0 2.4544-1.6113 4.4304-3.6126 4.4304h-77.67c-2.0014 0-3.6126-1.976-3.6126-4.4304v-26.583c0-2.4545 1.6112-4.4305 3.6126-4.4305z" fill="#96f" stroke="#774dcb" stroke-width="1.0002"/>
<path d="m8793.7 3173.8v1.4839q-0.6739-0.3709-1.3564-0.5522-0.6739-0.1897-1.3651-0.1897-1.5463 0-2.4016 0.9836-0.8554 0.9749-0.8554 2.7436 0 1.7686 0.8554 2.7523 0.8553 0.9749 2.4016 0.9749 0.6912 0 1.3651-0.1813 0.6825-0.1898 1.3564-0.5607v1.4666q-0.6653 0.3107-1.3823 0.466-0.7084 0.1552-1.5119 0.1552-2.1858 0-3.473-1.3718t-1.2872-3.7012q0-2.3641 1.2959-3.7186 1.3045-1.3546 3.5679-1.3546 0.7344 0 1.4342 0.1553 0.6997 0.1468 1.3564 0.4487z" fill="#fff" stroke-width="1.1051"/>
<path d="m8800.2 3174.6q-1.2786 0-2.0216 1.0008-0.743 0.9922-0.743 2.7264t0.7344 2.7349q0.7429 0.9923 2.0302 0.9923 1.2699 0 2.0129-1.0009 0.743-1.0008 0.743-2.7263 0-1.7169-0.743-2.7178-0.743-1.0094-2.0129-1.0094zm0-1.346q2.0734 0 3.257 1.346 1.1835 1.3459 1.1835 3.7272 0 2.3726-1.1835 3.7272-1.1836 1.3458-3.257 1.3458-2.0821 0-3.2656-1.3458-1.175-1.3546-1.175-3.7272 0-2.3813 1.175-3.7272 1.1835-1.346 3.2656-1.346z" fill="#fff" stroke-width="1.1051"/>
<path d="m8807.1 3179.3v-5.8495h1.5896v5.7891q0 1.3718 0.5357 2.062 0.5357 0.6816 1.6069 0.6816 1.2873 0 2.0302-0.8196 0.7516-0.8197 0.7516-2.2346v-5.4785h1.5896v9.663h-1.5896v-1.484q-0.5788 0.88-1.3477 1.3114-0.7602 0.4227-1.7711 0.4227-1.6673 0-2.5312-1.0353-0.864-1.0353-0.864-3.0283zm4-6.0826z" fill="#fff" stroke-width="1.1051"/>
<path d="m8818.5 3169.7h1.5896v13.425h-1.5896z" fill="#fff" stroke-width="1.1051"/>
<path d="m8831.7 3177.9v0.7764h-7.3089q0.104 1.6393 0.9849 2.5021 0.8898 0.8542 2.4708 0.8542 0.9158 0 1.771-0.2244 0.864-0.2243 1.7106-0.6729v1.5011q-0.8552 0.3625-1.7537 0.5522-0.8985 0.1898-1.823 0.1898-2.3152 0-3.6716-1.3458-1.3477-1.346-1.3477-3.641 0-2.3725 1.2785-3.7617 1.2873-1.3977 3.4644-1.3977 1.9525 0 3.0843 1.2597 1.1404 1.2511 1.1404 3.408zm-1.5896-0.4659q-0.018-1.3028-0.7344-2.0793-0.7084-0.7765-1.8834-0.7765-1.3305 0-2.1339 0.7506-0.7948 0.7506-0.9157 2.1138z" fill="#fff" stroke-width="1.1051"/>
<path d="m8834.1 3179.3v-5.8495h1.5896v5.7891q0 1.3718 0.5357 2.062 0.5355 0.6816 1.6068 0.6816 1.2873 0 2.0302-0.8196 0.7517-0.8197 0.7517-2.2346v-5.4785h1.5896v9.663h-1.5896v-1.484q-0.5788 0.88-1.3477 1.3114-0.7603 0.4227-1.7711 0.4227-1.6674 0-2.5314-1.0353-0.8638-1.0353-0.8638-3.0283zm4-6.0826z" fill="#fff" stroke-width="1.1051"/>
<path d="m8851.1 3174.9q-0.2678-0.1553-0.5875-0.2243-0.311-0.077-0.6911-0.077-1.3477 0-2.0735 0.8799-0.717 0.8715-0.717 2.5108v5.0903h-1.5982v-9.663h1.5982v1.5011q0.5011-0.8799 1.3046-1.3028 0.8033-0.4313 1.9524-0.4313 0.1641 0 0.3628 0.026 0.1988 0.018 0.4407 0.061z" fill="#fff" stroke-width="1.1051"/>
<path class="sb3-sound" d="m8581.5 3207.4a4.4233 4.4174 0 0 1 4.4233-4.4174h8.8466c2.2117 0 3.3175 1.1043 4.4233 2.2087l4.4234 4.4174c1.1058 1.1043 2.2116 2.2087 4.4233 2.2087h13.27c2.2117 0 3.3175-1.1044 4.4233-2.2087l4.4233-4.4174c1.1059-1.1044 2.2117-2.2087 4.4234-2.2087h270.93a4.4233 4.4174 0 0 1 4.4233 4.4174v44.174a4.4233 4.4174 0 0 1-4.4233 4.4174h-270.93c-2.2117 0-3.3175 1.1044-4.4234 2.2087l-4.4233 4.4174c-1.1058 1.1044-2.2116 2.2087-4.4233 2.2087h-13.27c-2.2117 0-3.3175-1.1043-4.4233-2.2087l-4.4234-4.4174c-1.1058-1.1043-2.2116-2.2087-4.4233-2.2087h-8.8466a4.4233 4.4174 0 0 1-4.4233-4.4174z" stroke-width="1.1051"/>
<path d="m8592.1 3226.5h1.5896v9.8355q0 1.8464-0.7084 2.6747-0.6998 0.8282-2.2635 0.8282h-0.6048v-1.346h0.4233q0.9073 0 1.2355-0.4227 0.3283-0.4141 0.3283-1.7342zm0-3.7618h1.5896v2.0103h-1.5896z" fill="#fff" stroke-width="1.1051"/>
<path d="m8600.7 3227.6q-1.2785 0-2.0215 1.0007-0.743 0.9923-0.743 2.7264 0 1.7342 0.7344 2.7349 0.743 0.9923 2.0301 0.9923 1.2701 0 2.0131-1.0009 0.7429-1.0007 0.7429-2.7263 0-1.7169-0.7429-2.7178-0.743-1.0093-2.0131-1.0093zm0-1.346q2.0735 0 3.2571 1.346 1.1836 1.3458 1.1836 3.7271 0 2.3726-1.1836 3.7272-1.1836 1.3459-3.2571 1.3459-2.082 0-3.2656-1.3459-1.1749-1.3546-1.1749-3.7272 0-2.3813 1.1749-3.7271 1.1836-1.346 3.2656-1.346z" fill="#fff" stroke-width="1.1051"/>
<path d="m8607.6 3232.3v-5.8495h1.5896v5.7891q0 1.3718 0.5357 2.062 0.5356 0.6816 1.6068 0.6816 1.2873 0 2.0303-0.8196 0.7517-0.8197 0.7517-2.2345v-5.4786h1.5896v9.663h-1.5896v-1.484q-0.5789 0.8801-1.3478 1.3114-0.7603 0.4228-1.771 0.4228-1.6675 0-2.5313-1.0354-0.864-1.0353-0.864-3.0283zm4-6.0825z" fill="#fff" stroke-width="1.1051"/>
<path d="m8627.3 3230.9v0.7765h-7.3088q0.1039 1.6393 0.9848 2.502 0.8899 0.8542 2.4709 0.8542 0.9157 0 1.7711-0.2244 0.8638-0.2243 1.7105-0.6729v1.5012q-0.8553 0.3624-1.7538 0.5521-0.8985 0.1899-1.8228 0.1899-2.3154 0-3.6717-1.3459-1.3478-1.346-1.3478-3.6409 0-2.3726 1.2787-3.7618 1.2872-1.3976 3.4643-1.3976 1.9525 0 3.0842 1.2596 1.1404 1.2511 1.1404 3.408zm-1.5896-0.4659q-0.018-1.3028-0.7344-2.0793-0.7084-0.7764-1.8833-0.7764-1.3305 0-2.1339 0.7506-0.7948 0.7505-0.9158 2.1137z" fill="#fff" stroke-width="1.1051"/>
<path d="m8635.5 3227.9q-0.2678-0.1553-0.5875-0.2243-0.311-0.077-0.6912-0.077-1.3477 0-2.0734 0.8799-0.717 0.8715-0.717 2.5108v5.0904h-1.5983v-9.6631h1.5983v1.5012q0.501-0.88 1.3045-1.3028 0.8034-0.4314 1.9525-0.4314 0.1641 0 0.3628 0.026 0.1987 0.018 0.4407 0.061z" fill="#fff" stroke-width="1.1051"/>
<path d="m8642.7 3222.7h1.5897v13.425h-1.5897z" fill="#fff" stroke-width="1.1051"/>
<path d="m8655.9 3230.9v0.7765h-7.3088q0.1039 1.6393 0.9849 2.502 0.8899 0.8542 2.4708 0.8542 0.9158 0 1.7711-0.2244 0.864-0.2243 1.7106-0.6729v1.5012q-0.8554 0.3624-1.7538 0.5521-0.8985 0.1899-1.8229 0.1899-2.3153 0-3.6717-1.3459-1.3478-1.346-1.3478-3.6409 0-2.3726 1.2787-3.7618 1.2873-1.3976 3.4643-1.3976 1.9525 0 3.0843 1.2596 1.1403 1.2511 1.1403 3.408zm-1.5896-0.4659q-0.018-1.3028-0.7343-2.0793-0.7085-0.7764-1.8834-0.7764-1.3304 0-2.1339 0.7506-0.7948 0.7505-0.9158 2.1137z" fill="#fff" stroke-width="1.1051"/>
<path d="m8670 3226.7v1.5011q-0.6738-0.3451-1.3995-0.5176-0.7257-0.1726-1.5033-0.1726-1.1835 0-1.7796 0.3625-0.5875 0.3623-0.5875 1.087 0 0.5521 0.4233 0.8714 0.4233 0.3107 1.702 0.5954l0.5443 0.1207q1.6932 0.3624 2.4016 1.0267 0.7171 0.6557 0.7171 1.8377 0 1.3459-1.0713 2.1311-1.0626 0.7851-2.9287 0.7851-0.7775 0-1.6242-0.1553-0.838-0.1467-1.771-0.4487v-1.6392q0.8812 0.4572 1.7365 0.6902 0.8552 0.2243 1.6932 0.2243 1.1232 0 1.7279-0.3796 0.6048-0.3882 0.6048-1.0871 0-0.6471-0.4406-0.9922-0.4319-0.3451-1.9093-0.6643l-0.5529-0.1294q-1.4773-0.3107-2.1339-0.9491-0.6566-0.647-0.6566-1.7687 0-1.3631 0.9676-2.1051t2.7473-0.742q0.8812 0 1.6588 0.1294 0.7775 0.1294 1.434 0.3883z" fill="#fff" stroke-width="1.1051"/>
<path d="m8676.8 3227.6q-1.2787 0-2.0217 1.0007-0.7429 0.9923-0.7429 2.7264 0 1.7342 0.7343 2.7349 0.743 0.9923 2.0303 0.9923 1.2699 0 2.013-1.0009 0.743-1.0007 0.743-2.7263 0-1.7169-0.743-2.7178-0.7431-1.0093-2.013-1.0093zm0-1.346q2.0734 0 3.257 1.346 1.1836 1.3458 1.1836 3.7271 0 2.3726-1.1836 3.7272-1.1836 1.3459-3.257 1.3459-2.082 0-3.2657-1.3459-1.175-1.3546-1.175-3.7272 0-2.3813 1.175-3.7271 1.1837-1.346 3.2657-1.346z" fill="#fff" stroke-width="1.1051"/>
<path d="m8691.9 3230.3v5.8324h-1.5896v-5.7806q0-1.3718-0.5356-2.0534-0.5357-0.6816-1.607-0.6816-1.2872 0-2.0302 0.8197-0.743 0.8196-0.743 2.2345v5.4614h-1.5982v-9.663h1.5982v1.5011q0.5703-0.8713 1.3392-1.3028 0.7775-0.4313 1.7883-0.4313 1.6674 0 2.5226 1.0353 0.8553 1.0267 0.8553 3.0283z" fill="#fff" stroke-width="1.1051"/>
<path class="sb3-sound sb3-input sb3-input-number-dropdown sb3-sound-alt" d="m8713.8 3211.8h47.758c7.8393 0 14.15 7.9063 14.15 17.727 0 9.8208-6.3112 17.727-14.15 17.727h-47.758c-7.8394 0-14.15-7.9063-14.15-17.727 0-9.8209 6.3111-17.727 14.15-17.727z" fill="#c94fc9" stroke="#bd42bd" stroke-width=".98989"/>
<path d="m8712.8 3223.2h2.6005l3.2916 8.7658 3.3087-8.7658h2.6005v12.881h-1.702v-11.311l-3.3261 8.8348h-1.7537l-3.3261-8.8348v11.311h-1.6934z" fill="#fff" stroke-width="1.1051"/>
<path d="m8728 3226.5h1.5897v9.663h-1.5897zm0-3.7618h1.5897v2.0103h-1.5897z" fill="#fff" stroke-width="1.1051"/>
<path d="m8737.3 3231.3q-1.9266 0-2.6696 0.44-0.7429 0.44-0.7429 1.5012 0 0.8456 0.5529 1.346 0.5616 0.4917 1.5206 0.4917 1.3218 0 2.1165-0.9318 0.8035-0.9404 0.8035-2.4934v-0.3537zm3.1706-0.6557v5.5131h-1.5896v-1.4668q-0.5443 0.8801-1.3564 1.3028-0.8121 0.4142-1.9871 0.4142-1.4859 0-2.3671-0.8283-0.8725-0.8369-0.8725-2.2345 0-1.6307 1.0885-2.459 1.0972-0.8282 3.2657-0.8282h2.2289v-0.1553q0-1.0957-0.7257-1.6911-0.7171-0.6038-2.0216-0.6038-0.8294 0-1.6155 0.1984-0.7863 0.1983-1.5119 0.5952v-1.4666q0.8725-0.3365 1.6932-0.5004 0.8208-0.1726 1.5983-0.1726 2.0994 0 3.1361 1.0871t1.0367 3.2958z" fill="#fff" stroke-width="1.1051"/>
<path d="m8747.5 3227.6q-1.2786 0-2.0216 1.0007-0.743 0.9923-0.743 2.7264 0 1.7342 0.7344 2.7349 0.743 0.9923 2.0302 0.9923 1.2701 0 2.0131-1.0009 0.7429-1.0007 0.7429-2.7263 0-1.7169-0.7429-2.7178-0.743-1.0093-2.0131-1.0093zm0-1.346q2.0734 0 3.2571 1.346 1.1836 1.3458 1.1836 3.7271 0 2.3726-1.1836 3.7272-1.1837 1.3459-3.2571 1.3459-2.082 0-3.2656-1.3459-1.175-1.3546-1.175-3.7272 0-2.3813 1.175-3.7271 1.1836-1.346 3.2656-1.346z" fill="#fff" stroke-width="1.1051"/>
<path d="m8754.4 3232.3v-5.8495h1.5897v5.7891q0 1.3718 0.5356 2.062 0.5357 0.6816 1.6069 0.6816 1.2873 0 2.0303-0.8196 0.7516-0.8197 0.7516-2.2345v-5.4786h1.5897v9.663h-1.5897v-1.484q-0.5789 0.8801-1.3477 1.3114-0.7603 0.4228-1.771 0.4228-1.6675 0-2.5314-1.0354-0.864-1.0353-0.864-3.0283zm4-6.0825z" fill="#fff" stroke-width="1.1051"/>
<path d="m8785.4 3226.5h1.5896v9.8355q0 1.8464-0.7084 2.6747-0.6998 0.8282-2.2635 0.8282h-0.6048v-1.346h0.4234q0.9071 0 1.2353-0.4227 0.3284-0.4141 0.3284-1.7342zm0-3.7618h1.5896v2.0103h-1.5896z" fill="#fff" stroke-width="1.1051"/>
<path d="m8790.1 3232.3v-5.8495h1.5896v5.7891q0 1.3718 0.5357 2.062 0.5355 0.6816 1.6069 0.6816 1.2873 0 2.0301-0.8196 0.7517-0.8197 0.7517-2.2345v-5.4786h1.5896v9.663h-1.5896v-1.484q-0.5788 0.8801-1.3477 1.3114-0.7603 0.4228-1.7711 0.4228-1.6674 0-2.5313-1.0354-0.8639-1.0353-0.8639-3.0283zm4-6.0825z" fill="#fff" stroke-width="1.1051"/>
<path d="m8807.7 3226.7v1.5011q-0.6739-0.3451-1.3995-0.5176-0.7258-0.1726-1.5033-0.1726-1.1836 0-1.7797 0.3625-0.5874 0.3623-0.5874 1.087 0 0.5521 0.4233 0.8714 0.4233 0.3107 1.7018 0.5954l0.5443 0.1207q1.6934 0.3624 2.4018 1.0267 0.717 0.6557 0.717 1.8377 0 1.3459-1.0712 2.1311-1.0627 0.7851-2.9288 0.7851-0.7775 0-1.6241-0.1553-0.838-0.1467-1.7711-0.4487v-1.6392q0.8812 0.4572 1.7364 0.6902 0.8554 0.2243 1.6934 0.2243 1.1231 0 1.7279-0.3796 0.6047-0.3882 0.6047-1.0871 0-0.6471-0.4406-0.9922-0.432-0.3451-1.9093-0.6643l-0.5529-0.1294q-1.4774-0.3107-2.1339-0.9491-0.6566-0.647-0.6566-1.7687 0-1.3631 0.9676-2.1051t2.7473-0.742q0.8812 0 1.6587 0.1294t1.4342 0.3883z" fill="#fff" stroke-width="1.1051"/>
<path d="m8811.7 3231.3q0 1.7514 0.717 2.7523 0.7258 0.9921 1.9871 0.9921t1.987-0.9921q0.7257-1.0009 0.7257-2.7523 0-1.7515-0.7257-2.7436-0.7257-1.0009-1.987-1.0009t-1.9871 1.0009q-0.717 0.9921-0.717 2.7436zm5.4168 3.3735q-0.5011 0.8627-1.27 1.2854-0.7602 0.4142-1.8315 0.4142-1.7538 0-2.8596-1.3977-1.0972-1.3977-1.0972-3.6754t1.0972-3.6755q1.1058-1.3976 2.8596-1.3976 1.0713 0 1.8315 0.4227 0.7689 0.4141 1.27 1.277v-1.4667h1.5896v13.338h-1.5896z" fill="#fff" stroke-width="1.1051"/>
<path d="m8821.8 3232.3v-5.8495h1.5896v5.7891q0 1.3718 0.5356 2.062 0.5357 0.6816 1.6069 0.6816 1.2873 0 2.0302-0.8196 0.7516-0.8197 0.7516-2.2345v-5.4786h1.5897v9.663h-1.5897v-1.484q-0.5787 0.8801-1.3476 1.3114-0.7603 0.4228-1.7711 0.4228-1.6674 0-2.5313-1.0354-0.8639-1.0353-0.8639-3.0283zm4-6.0825z" fill="#fff" stroke-width="1.1051"/>
<path d="m8834.7 3223.2v4.7884h-1.4687v-4.7884z" fill="#fff" stroke-width="1.1051"/>
<path d="m8842.4 3231.3q-1.9265 0-2.6695 0.44t-0.743 1.5012q0 0.8456 0.5529 1.346 0.5615 0.4917 1.5205 0.4917 1.3218 0 2.1167-0.9318 0.8034-0.9404 0.8034-2.4934v-0.3537zm3.1707-0.6557v5.5131h-1.5897v-1.4668q-0.5442 0.8801-1.3564 1.3028-0.8121 0.4142-1.987 0.4142-1.4859 0-2.3672-0.8283-0.8726-0.8369-0.8726-2.2345 0-1.6307 1.0886-2.459 1.0972-0.8282 3.2656-0.8282h2.229v-0.1553q0-1.0957-0.7257-1.6911-0.717-0.6038-2.0216-0.6038-0.8293 0-1.6156 0.1984-0.7861 0.1983-1.5118 0.5952v-1.4666q0.8725-0.3365 1.6933-0.5004 0.8207-0.1726 1.5982-0.1726 2.0994 0 3.1362 1.0871 1.0367 1.0871 1.0367 3.2958z" fill="#fff" stroke-width="1.1051"/>
<path d="m8848.7 3232.3v-5.8495h1.5896v5.7891q0 1.3718 0.5356 2.062 0.5357 0.6816 1.607 0.6816 1.2872 0 2.0302-0.8196 0.7516-0.8197 0.7516-2.2345v-5.4786h1.5896v9.663h-1.5896v-1.484q-0.5789 0.8801-1.3478 1.3114-0.7602 0.4228-1.771 0.4228-1.6673 0-2.5313-1.0354-0.8639-1.0353-0.8639-3.0283zm3.9999-6.0825z" fill="#fff" stroke-width="1.1051"/>
<path d="m8871 3231.3q0-1.7515-0.7257-2.7436-0.717-1.0009-1.9784-1.0009t-1.987 1.0009q-0.717 0.9921-0.717 2.7436 0 1.7514 0.717 2.7523 0.7256 0.9921 1.987 0.9921t1.9784-0.9921q0.7257-1.0009 0.7257-2.7523zm-5.4081-3.3734q0.501-0.8629 1.2613-1.277 0.7689-0.4227 1.8314-0.4227 1.7625 0 2.8597 1.3976 1.1058 1.3978 1.1058 3.6755t-1.1058 3.6754q-1.0972 1.3977-2.8597 1.3977-1.0625 0-1.8314-0.4142-0.7603-0.4227-1.2613-1.2854v1.4494h-1.5984v-13.425h1.5984z" fill="#fff" stroke-width="1.1051"/>
<path d="m8879.1 3227.6q-1.2785 0-2.0215 1.0007-0.743 0.9923-0.743 2.7264 0 1.7342 0.7343 2.7349 0.7429 0.9923 2.0302 0.9923 1.27 0 2.013-1.0009 0.743-1.0007 0.743-2.7263 0-1.7169-0.743-2.7178-0.743-1.0093-2.013-1.0093zm0-1.346q2.0735 0 3.257 1.346 1.1836 1.3458 1.1836 3.7271 0 2.3726-1.1836 3.7272-1.1835 1.3459-3.257 1.3459-2.082 0-3.2656-1.3459-1.1749-1.3546-1.1749-3.7272 0-2.3813 1.1749-3.7271 1.1836-1.346 3.2656-1.346z" fill="#fff" stroke-width="1.1051"/>
<path d="m8886 3232.3v-5.8495h1.5896v5.7891q0 1.3718 0.5357 2.062 0.5356 0.6816 1.6068 0.6816 1.2873 0 2.0302-0.8196 0.7517-0.8197 0.7517-2.2345v-5.4786h1.5896v9.663h-1.5896v-1.484q-0.5788 0.8801-1.3477 1.3114-0.7603 0.4228-1.7711 0.4228-1.6674 0-2.5313-1.0354-0.8639-1.0353-0.8639-3.0283zm4-6.0825z" fill="#fff" stroke-width="1.1051"/>
<path d="m8898.9 3223.7v2.7437h3.2744v1.2337h-3.2744v5.2456q0 1.1821 0.3197 1.5185 0.3283 0.3365 1.3218 0.3365h1.6329v1.3287h-1.6329q-1.8401 0-2.54-0.6816-0.6997-0.6902-0.6997-2.5021v-5.2456h-1.1664v-1.2337h1.1664v-2.7437z" fill="#fff" stroke-width="1.1051"/>
<path d="m8461.1 2885.6h519.91v519.22h-519.91z" fill="none" stroke-dasharray="53.5204, 53.5204" stroke-linecap="round" stroke-width="17.84" style="paint-order:fill markers stroke"/>
<path d="m8824.2 3334a4.4933 4.4873 0 0 1-4.4933 4.4872 4.4933 4.4873 0 0 1-4.4933-4.4872 4.4933 4.4873 0 0 1 4.4933-4.4873 4.4933 4.4873 0 0 1 4.4933 4.4873z" fill="#fff" stroke-dasharray="19.636, 19.636" stroke-linecap="round" stroke-width="6.5453" style="paint-order:fill markers stroke"/>
<path d="m8780.7 3300.4a3.0636 3.0595 0 0 1-3.0636 3.0595 3.0636 3.0595 0 0 1-3.0636-3.0595 3.0636 3.0595 0 0 1 3.0636-3.0595 3.0636 3.0595 0 0 1 3.0636 3.0595z" fill="#fff" stroke-dasharray="13.3882, 13.3882" stroke-linecap="round" stroke-width="4.4627" style="paint-order:fill markers stroke"/>
<path d="m8655.5 3336.5a4.4933 4.4873 0 0 1-4.4933 4.4873 4.4933 4.4873 0 0 1-4.4933-4.4873 4.4933 4.4873 0 0 1 4.4933-4.4873 4.4933 4.4873 0 0 1 4.4933 4.4873z" fill="#fff" stroke-dasharray="19.636, 19.636" stroke-linecap="round" stroke-width="6.5453" style="paint-order:fill markers stroke"/>
<path d="m8411 2835.2h620v620h-620z" fill="none" stroke-linecap="round" stroke-width="1.1733" style="paint-order:fill markers stroke"/>
</g>
</g>
</svg>
