<?xml version="1.0" encoding="UTF-8" standalone="no"?>
<svg
   id="Layer_1"
   viewBox="0 0 58.950273 17.7"
   version="1.1"
   sodipodi:docname="scratch.svg"
   width="58.950272"
   height="17.700001"
   inkscape:version="1.1 (c68e22c387, 2021-05-23)"
   xmlns:inkscape="http://www.inkscape.org/namespaces/inkscape"
   xmlns:sodipodi="http://sodipodi.sourceforge.net/DTD/sodipodi-0.dtd"
   xmlns="http://www.w3.org/2000/svg"
   xmlns:svg="http://www.w3.org/2000/svg">
  <defs
     id="defs27" />
  <sodipodi:namedview
     id="namedview25"
     pagecolor="#ffffff"
     bordercolor="#666666"
     borderopacity="1.0"
     inkscape:pageshadow="2"
     inkscape:pageopacity="0.0"
     inkscape:pagecheckerboard="0"
     showgrid="false"
     inkscape:zoom="16.278366"
     inkscape:cx="29.33341"
     inkscape:cy="8.8768121"
     inkscape:window-width="1920"
     inkscape:window-height="1017"
     inkscape:window-x="3832"
     inkscape:window-y="-8"
     inkscape:window-maximized="1"
     inkscape:current-layer="Layer_1" />
  <style
     id="style2">.st0{fill:#fff}.st1{fill:#f9a83a}</style>
  <g
     id="g873"
     transform="translate(-3.6555556,-3.5)">
    <path
       d="m 60,20.5 c -1.3,0.1 -2.1,0.2 -2.3,0.3 l -0.1,0.1 c -0.3,0.1 -0.7,0.3 -1.2,0.3 -0.6,0 -1.3,-0.2 -1.8,-0.7 -0.2,-0.2 -0.4,-0.4 -0.5,-0.6 h -2.3 c -0.4,0 -0.8,-0.1 -1.1,-0.3 -0.1,0.1 -0.3,0.1 -0.4,0.2 -0.8,0.4 -1.5,0.4 -2,0.4 h -0.5 c -1.5,0 -2.7,-0.5 -3.5,-1.4 -0.5,0.5 -1.2,0.8 -1.9,0.8 l -3.7,0.1 c -1.3,0 -2.5,-1 -2.7,-2.2 -0.5,0.3 -1,0.5 -1.6,0.5 -0.6,0 -1.2,-0.2 -1.7,-0.5 -0.1,-0.1 -0.2,-0.2 -0.3,-0.2 -0.3,0.2 -0.7,0.2 -1.1,0.2 H 31 c -0.4,1.2 -1.1,2 -2.2,2.5 -0.5,0.2 -1.1,0.4 -1.6,0.4 -0.5,0 -1.1,-0.1 -1.6,-0.3 -0.5,-0.2 -0.9,-0.5 -1.2,-0.8 -0.2,0.1 -0.4,0.1 -0.6,0.2 l -2.9,0.4 h -0.4 c -0.3,0 -0.5,0 -0.8,-0.1 -0.4,0.4 -0.9,0.6 -1.3,0.8 -0.8,0.4 -1.5,0.4 -2,0.4 h -0.5 c -1.8,0 -3.2,-0.8 -4,-1.9 -0.8,0.5 -1.8,0.8 -2.7,0.8 H 8.6 C 8.6,20 8.5,20 8.5,20.1 8,20.6 7.3,21 6.6,21 H 6.4 C 5,21 3.8,19.9 3.7,18.4 v -0.1 c 0,-0.5 -0.1,-1.4 0,-2.4 0,-0.7 0.1,-1.8 0.1,-1.8 0,-0.7 0.3,-1.3 0.7,-1.8 C 4.1,11.5 4,10.6 4.2,9.6 V 9.4 C 4.3,8.8 4.4,7.9 4.8,7 5.5,5.7 6.8,5 8.3,5 H 9 c 0.5,-0.4 1.1,-0.7 1.8,-0.7 1.5,0 2.7,1.3 2.7,2.8 V 8.2 C 14,8 14.6,7.9 15.2,7.9 c 0.3,0 0.5,0 0.8,0.1 0.4,-0.5 1,-0.8 1.6,-0.9 0.1,-0.2 0.2,-0.3 0.3,-0.5 0.4,-0.6 1.1,-1 1.8,-1.1 0.6,-0.1 1.8,-0.2 3.2,-0.2 1.6,0 2.9,0.2 3.9,0.7 0.3,-1.1 1.1,-1.9 2.3,-2.1 l 2.6,-0.4 h 0.4 c 0.8,0 1.5,0.3 2,0.9 0.2,0.2 0.5,0.6 0.6,0.9 l 0.1,0.3 c 0.5,-0.3 1,-0.5 1.6,-0.5 L 40.3,5 c 1.9,0 3.6,-0.1 3.6,-0.2 h 0.2 c 0.7,0 1.5,0.3 2,0.8 0.4,0.4 0.7,0.9 0.8,1.5 h 0.2 c 0.3,0 0.5,0 0.8,0.1 0.4,-0.5 1,-0.8 1.6,-0.9 C 50,5.6 50.9,5 51.9,5 h 2.6 C 55,4.4 55.7,4 56.6,4 h 3.2 c 1.5,0 2.7,1.2 2.8,2.7 0,1.1 -0.6,2.1 -1.5,2.5 v 6.1 c 0.8,0.4 1.4,1.3 1.5,2.3 0.1,1.5 -1.1,2.8 -2.6,2.9 z"
       class="st1"
       id="path8" />
    <path
       d="m 32.3,8.5 -0.7,3.6 2,-0.3 z"
       class="st1"
       id="path10" />
    <path
       d="M 8.4,12 C 7.7,11.9 7.3,11.4 7.5,10 V 9.8 C 7.7,8.6 7.8,8.3 8.4,8.3 c 0.2,0 0.4,0.1 0.6,0.3 0.2,0.2 0.6,0.5 0.8,1.1 0.2,0.4 0.2,0.7 0.3,1 v 0.4 c 0,0.2 0.2,0.4 0.5,0.5 0.3,0.1 0.6,-0.2 0.7,-0.5 0,0 0.2,-3.8 0.2,-3.9 0,-0.3 -0.3,-0.6 -0.6,-0.6 -0.3,0 -0.6,0.3 -0.6,0.6 V 8.3 C 9.8,7.8 9.2,7.3 8.5,7.3 6.6,7 6.4,8.7 6.3,9.7 v 0.2 c -0.2,1.9 0.4,3.1 1.9,3.4 1.6,0.3 2.7,0.6 2.7,1.6 0,0.4 -0.2,0.8 -0.6,1.1 -0.4,0.4 -1,0.5 -1.6,0.4 C 8.5,16.4 8.4,16.3 8.2,16.3 8,16.2 7.4,15.9 7.2,15.5 7.1,15.1 7,14.6 7,14.3 v -0.2 c 0,-0.3 -0.3,-0.6 -0.6,-0.6 -0.3,0 -0.6,0.3 -0.6,0.6 0,0 0,1.2 -0.1,1.9 -0.1,1.2 0,2.1 0,2.2 0,0.3 0.3,0.6 0.6,0.6 0.3,0 0.6,-0.3 0.6,-0.6 v -1.1 c 0.4,0.3 1,0.6 1.7,0.7 0.9,0.2 1.8,-0.1 2.5,-0.7 0.6,-0.5 1,-1.3 1,-2 0,-2.5 -2.5,-2.9 -3.7,-3.1 m 16.8,-1.7 c -0.1,0.1 -0.2,0.2 -0.4,0.3 -0.1,0.1 -0.4,0.2 -0.5,0.2 L 24,10.9 c -0.4,0.2 -1,0.3 -1.6,0.4 V 8.5 c 1.6,0 3,0.1 3.3,0.6 v 0.2 c 0,0.2 -0.2,0.6 -0.5,1 m 3.5,5.4 c -0.3,-0.1 -0.7,0.1 -0.8,0.4 -0.2,0.7 -0.4,0.7 -0.5,0.8 -0.1,0.1 -0.3,0 -0.6,-0.1 0,0 -0.1,-0.2 -0.2,-0.3 -0.1,-0.2 -0.2,-1 -0.2,-1.5 0,-1.8 -0.4,-2.8 -0.9,-3.3 0.3,-0.2 0.6,-0.5 0.6,-0.5 0.7,-1 0.9,-1.8 0.5,-2.5 -1,-1.7 -5.3,-1.2 -6.7,-1 -0.3,0 -0.6,0.4 -0.5,0.7 0,0.3 0.4,0.6 0.7,0.5 0.3,0 0.6,-0.1 0.9,-0.1 v 2.8 h -0.3 c -0.3,0 -0.6,0.3 -0.6,0.6 0,0.3 0.3,0.6 0.6,0.6 H 21 v 3.5 l -0.8,0.1 c -0.3,0 -0.6,0.4 -0.5,0.7 0,0.3 0.4,0.6 0.7,0.5 l 2.9,-0.4 c 0.3,0 0.6,-0.4 0.5,-0.7 0,-0.3 -0.4,-0.6 -0.7,-0.5 l -0.9,0.1 v -3.5 c 0.6,-0.1 1.1,-0.2 1.6,-0.4 H 24 c 0.2,0 0.4,0.1 0.5,0.3 0.2,0.3 0.4,0.9 0.5,2.4 0,0.3 0.1,1.5 0.3,2 0.1,0.2 0.4,0.7 0.9,0.9 0.4,0.1 0.9,0.3 1.5,0 0.5,-0.3 0.9,-0.6 1.1,-1.5 0.4,-0.2 0.2,-0.5 -0.1,-0.6 m 21.8,-1.9 c -0.3,0 -0.6,0.3 -0.6,0.6 v 0.8 c 0,0.3 -0.1,0.7 -0.2,0.8 -0.1,0.2 -0.2,0.3 -0.4,0.5 -0.1,0.1 -0.3,0.2 -0.5,0.3 -0.2,0.1 -0.3,0.1 -0.7,0.1 H 47.7 C 46.1,17 45.9,15.7 45.9,15.4 v -2.6 c 0.1,-1 0.3,-1.7 0.7,-2 0.3,-0.2 0.7,-0.1 1.4,0.1 0.8,0.3 1.3,1.2 1.4,1.2 0.1,0.2 0.4,0.3 0.7,0.3 0.3,-0.1 0.4,-0.3 0.4,-0.6 V 9.1 c 0,-0.3 -0.3,-0.6 -0.6,-0.6 -0.3,0 -0.6,0.3 -0.6,0.6 v 1.1 C 49.1,10 48.8,9.9 48.5,9.7 48.2,9.5 47,9 46.1,9.6 45.4,10.1 44.9,11 44.8,12.5 v 2.8 c 0.1,0.9 0.8,2.7 3,2.7 h 0.3 c 0.4,0 0.8,0 1.2,-0.2 0.3,-0.1 0.6,-0.3 0.9,-0.6 0.2,-0.2 0.3,-0.4 0.5,-0.7 0.2,-0.4 0.3,-1.1 0.4,-1.3 v -1 c 0,-0.2 -0.3,-0.4 -0.6,-0.4 m 9.9,4 c 0,-0.3 -0.3,-0.6 -0.6,-0.6 -0.2,0 -0.5,0 -0.8,0.1 0,-1 0,-3.1 -0.1,-9.9 h 0.9 c 0.3,0 0.6,-0.3 0.6,-0.6 0,-0.3 -0.3,-0.6 -0.6,-0.6 l -3.2,0.1 c -0.3,0 -0.6,0.3 -0.6,0.6 0,0.3 0.3,0.6 0.6,0.6 h 1 v 4.2 L 54,12.3 V 8.5 h 1 c 0.3,0 0.6,-0.3 0.6,-0.6 0,-0.3 -0.3,-0.6 -0.6,-0.6 h -3.2 c -0.3,0 -0.6,0.3 -0.6,0.6 0,0.3 0.3,0.6 0.6,0.6 h 1 v 8.1 h -1 c -0.3,0 -0.6,0.3 -0.6,0.6 0,0.3 0.3,0.6 0.6,0.6 l 3.3,0.1 c 0.3,0 0.6,-0.3 0.6,-0.6 0,-0.3 -0.3,-0.6 -0.6,-0.6 h -1 V 13.6 L 57.7,13 v 4.6 c -0.8,0.2 -1.4,0.2 -1.7,0.6 -0.2,0.2 -0.2,0.6 0.1,0.8 0.2,0.2 0.5,0.1 0.9,0 0.3,-0.2 1.5,-0.3 2.9,-0.4 0.3,-0.2 0.5,-0.5 0.5,-0.8"
       class="st0"
       id="path12" />
    <path
       d="m 31.6,12.1 0.7,-3.6 1.3,3.3 z m 5.3,1 c -0.2,0.1 -0.5,0.2 -1.1,0.5 L 35,11.7 32.7,6.2 C 32.7,6.1 32.6,5.9 32.5,5.9 32.4,5.8 32.2,5.7 32,5.7 L 29.4,6 c -0.3,0 -0.6,0.3 -0.5,0.7 0,0.3 0.3,0.6 0.7,0.5 0,0 1,-0.1 1.8,-0.2 -0.2,1.1 -1.1,5.6 -1.4,7 l -1.8,-0.1 c -0.3,0 -0.6,0.2 -0.6,0.6 0,0.3 0.2,0.6 0.6,0.6 l 3,0.1 c 0.3,0 0.6,-0.2 0.6,-0.6 0,-0.3 -0.2,-0.6 -0.6,-0.6 l 0.1,-0.9 2.8,-0.5 0.6,1.5 c -0.5,0.3 -0.7,0.4 -1,0.7 -0.2,0.3 -0.1,0.6 0.1,0.8 0.3,0.2 0.7,0.1 0.9,-0.1 0.3,-0.4 1.4,-0.9 2.5,-1.3 0.3,-0.1 0.5,-0.5 0.4,-0.8 -0.1,-0.2 -0.4,-0.4 -0.7,-0.3"
       class="st0"
       id="path14" />
    <path
       d="m 44.1,7 c 0,0 -1.8,0.1 -3.8,0.2 l -3.9,0.1 c -0.2,0 -0.3,0.1 -0.5,0.2 -0.1,0.1 -0.2,0.3 -0.1,0.5 l 0.5,3 c 0,0.3 0.4,0.6 0.7,0.5 0.3,0 0.5,-0.3 0.5,-0.6 0,0 -0.2,-1.6 -0.4,-2.4 h 2.6 v 7.9 h -1.3 c -0.3,0 -0.6,0.3 -0.6,0.6 0,0.3 0.3,0.6 0.6,0.6 l 3.7,-0.1 c 0.3,0 0.6,-0.3 0.6,-0.6 0,-0.3 -0.3,-0.6 -0.6,-0.6 H 40.9 V 8.4 c 1,0 1.9,-0.1 2.5,-0.1 v 1.2 c 0,0.6 0.1,0.8 0.1,0.9 0.2,0.3 0.5,0.4 0.8,0.2 0.2,-0.1 0.3,-0.4 0.3,-0.6 0,0 0,-1.4 0.1,-2.2 0,-0.2 0,-0.3 -0.2,-0.5 C 44.5,7.1 44.3,7 44.1,7 M 18.6,14.4 C 18.3,14.4 18,14.7 18,15 v 0.9 c 0,0.2 -0.1,0.6 -0.2,0.8 -0.1,0.2 -0.2,0.3 -0.4,0.5 -0.1,0.1 -0.3,0.2 -0.5,0.3 -0.2,0.1 -0.3,0.1 -0.7,0.1 H 15.8 C 14.2,17.6 14,16.4 14,16.1 v -2.6 c 0.1,-1 0.3,-1.7 0.7,-2 0.3,-0.2 0.7,-0.1 1.4,0.1 0.8,0.3 1.4,1.2 1.4,1.2 0.1,0.2 0.4,0.3 0.7,0.3 0.3,-0.1 0.4,-0.3 0.4,-0.6 V 9.8 c 0,-0.3 -0.3,-0.6 -0.6,-0.6 -0.3,0 -0.6,0.3 -0.6,0.6 v 1.1 c -0.2,-0.2 -0.5,-0.4 -0.8,-0.5 -0.4,-0.2 -1.5,-0.6 -2.5,-0.1 -0.7,0.5 -1.2,1.4 -1.3,2.9 V 16 c 0.1,0.9 0.8,2.7 3.1,2.7 h 0.3 c 0.4,0 0.8,0 1.2,-0.2 0.3,-0.1 0.6,-0.3 0.9,-0.6 0.2,-0.2 0.3,-0.4 0.5,-0.7 0.2,-0.4 0.3,-1.1 0.4,-1.3 v -1 c 0,-0.2 -0.3,-0.5 -0.6,-0.5"
       class="st0"
       id="path16" />
  </g>
</svg>
